<svg width="72" height="72" viewBox="0 0 72 72" fill="none" xmlns="http://www.w3.org/2000/svg">
<path d="M13.2334 14.8151C13.1994 15.3498 12.8315 16.0166 13.2334 16.7639C13.5709 19.8543 16.4248 20.8874 16.4248 21.5278C16.4248 22.1682 13.5116 21.8588 12.8722 24.6336C12.2327 27.4084 13.7248 29.3294 13.7248 29.3294C13.7248 29.3294 9.6748 30.1833 9.6748 33.3849C9.6748 36.5867 12.0373 36.8403 12.0373 36.8403C12.0373 36.8403 10.3143 39.3614 10.5274 41.7094C10.7406 44.0573 13.7248 45.5514 13.7248 45.5514C13.7248 45.5514 11.3801 47.3364 12.8722 50.1112C14.3643 52.886 24.8623 53.5666 27.8998 55.2153C30.9373 56.8641 40.7248 58.6181 44.2064 57.9376C44.2064 57.9376 46.9775 57.291 49.7485 56.8641C55.9301 56.8641 57.209 59.6389 57.209 59.6389L62.3248 38.9346L53.8873 30.7153C53.8873 30.7153 46.5511 23.3529 44.2064 22.0723C41.8616 20.7916 38.2379 20.7916 35.4669 19.5109C32.6959 18.2302 29.9071 16.17 27.5623 15.7431C25.8267 15.4271 24.3219 14.8848 22.4998 14.9334M13.2334 14.8151C13.3256 13.3643 14.3998 13.0209 14.3998 13.0209C14.3998 13.0209 14.8794 12.9343 17.4373 13.3612C18.1017 13.4721 21.8604 14.9504 22.4998 14.9334M13.2334 14.8151C16.4916 16.7874 20.4748 18.1529 21.8248 17.4445C23.1748 16.7361 22.4998 14.9334 22.4998 14.9334" stroke="#3A3A3A"/>
<path d="M30.5875 50.2489C30.7855 52.0871 28.575 52.1527 28.575 52.1527C28.575 52.1527 24.3767 52.4251 20.8125 51.8124C17.4375 51.8124 13.3879 50.2489 13.3879 50.2489C13.3879 50.2489 12.5734 49.4319 12.3754 48.0022C12.1774 46.5725 13.3879 45.3471 13.3879 45.3471C13.3879 45.3471 17.9595 45.1429 20.1375 45.3471C24.525 47.729 28.6075 48.0022 28.6075 48.0022C28.6075 48.0022 30.3896 48.4107 30.5875 50.2489Z" stroke="#3A3A3A"/>
<path d="M36.0002 34.4584C36.0002 34.4584 39.0377 36.4476 38.3627 38.8821C37.6877 41.3165 36.0002 41.3165 36.0002 41.3165C36.0002 41.3165 31.6236 41.1733 29.588 40.9237M36.0002 34.4584C36.0002 34.4584 27.5154 32.6742 24.9161 32.0433M36.0002 34.4584C36.0002 34.4584 39.2745 32.0387 36.6752 28.6737C35.0255 27.3924 33.1474 26.6321 31.8477 25.9515C30.5481 25.2709 29.5877 24.5904 27.9486 24.0516C26.3097 23.5128 16.4252 21.8682 16.4252 21.8682C16.4252 21.8682 13.219 22.5794 13.0023 24.4722C12.3525 27.2062 13.7252 29.6946 13.7252 29.6946M36.0002 34.4584L31.0653 33.4402L28.3796 32.8263L24.9161 32.0433M29.588 40.9237C26.8236 40.5848 25.0287 40.6035 22.5337 40.0349M29.588 40.9237C31.0143 41.157 31.8477 41.4047 31.8477 41.4047C31.8477 41.4047 36.8918 41.3822 36.6752 44.3265C36.488 46.8702 33.6377 47.5508 33.6377 47.5508C33.6377 47.5508 30.6376 47.6976 28.9127 47.5508C28.1023 47.4818 27.1783 47.6522 26.2127 47.5508C24.3144 47.3514 22.147 46.0122 20.4752 45.6876C11.8106 44.8464 11.9193 44.3265 11.9193 44.3265C11.9193 44.3265 10.403 41.7174 10.6196 40.0349C10.8362 38.3524 11.9193 37.1807 11.9193 37.1807C11.9193 37.1807 16.4255 37.8612 22.5337 40.0349M29.588 40.9237C27.0999 40.5167 24.9164 40.5834 22.5337 40.0349M24.9161 32.0433C21.8255 32.0433 13.7252 29.6946 13.7252 29.6946M24.9161 32.0433L13.7252 29.6946M13.7252 29.6946C13.7252 29.6946 10.8791 29.9402 10.0126 32.0433C7.84648 37.7216 17.4377 38.2214 22.5337 40.0349" stroke="#3A3A3A"/>
<path d="M38.7002 29.6943C39.9039 36.5522 41.8904 39.5643 48.1502 43.3054" stroke="#3A3A3A"/>
<path d="M31.5485 32.7317C30.6641 32.1856 32.165 28.8257 32.6943 28.425C33.2236 28.0243 35.3127 29.0044 36.8037 30.0378C37.673 31.4382 37.567 33.3769 36.0395 33.6994C34.512 34.022 32.4328 33.2779 31.5485 32.7317Z" stroke="#3A3A3A" stroke-linecap="round"/>
<path d="M31.8147 46.4211C30.9289 45.9473 31.2841 43.1551 31.8142 42.8074C32.3444 42.4597 34.7156 42.5719 36.2091 43.4686C37.0799 44.6837 36.725 46.1412 35.1949 46.4211C33.6648 46.701 32.7005 46.895 31.8147 46.4211Z" stroke="#3A3A3A" stroke-linecap="round"/>
<path d="M27.0026 50.5038C26.2589 50.1967 26.5571 48.3873 27.0022 48.162C27.4474 47.9367 29.074 48.5092 30.328 49.0902C30.328 49.7708 30.872 50.6103 29.5873 50.7917C28.3026 50.973 27.7464 50.8108 27.0026 50.5038Z" stroke="#3A3A3A" stroke-linecap="round"/>
<path d="M32.3238 40.0394C31.4754 39.4366 32.2673 35.7278 32.7751 35.2855C33.2828 34.8432 36.0916 35.4383 37.5219 36.579C38.3559 38.1248 38.1943 40.0172 36.729 40.3733C35.2636 40.7294 33.1722 40.6422 32.3238 40.0394Z" stroke="#3A3A3A" stroke-linecap="round"/>
</svg>
