<svg width="72" height="72" viewBox="0 0 72 72" fill="none" xmlns="http://www.w3.org/2000/svg">
<path d="M34.4269 27.4016C34.4269 27.4016 34.9644 26.764 34.4269 24.6091C33.8894 22.4541 33.6207 22.3355 33.352 21.258M34.4269 27.4016C34.4269 27.4016 35.7311 33.5451 35.7311 36.6169C35.7311 36.6169 34.3176 39.8119 33.8894 40.2472C32.9026 41.2504 32.3512 41.3394 30.6644 41.7151C29.0519 41.4458 28.5144 38.7521 28.5144 38.4827C28.5951 38.1186 28.7181 35.8536 28.7703 35.4999M34.4269 27.4016V27.1223C34.4269 27.1223 33.9202 26.4943 33.2153 26.5638C32.0968 26.6742 28.7703 28.2393 28.7703 28.2393L27.4116 29.3564M28.7588 36.0584C28.7641 35.6214 28.7533 35.4088 28.7703 34.9414M26.9019 28.9337C27.9041 29.6356 28.4764 30.7526 28.5144 31.0319C28.5905 31.5904 28.72 32.9866 28.7703 34.3829M26.9019 28.9337C24.8292 27.9601 22.9135 31.7432 23.0694 33.5451M26.9019 28.9337C26.5065 34.1728 24.2924 32.891 23.0694 33.5451M33.352 21.258C33.352 21.258 32.9357 21.5373 30.1404 21.782C28.5144 21.5373 27.6245 20.8824 27.2702 19.3033M33.352 21.258C33.352 21.258 32.8144 20.1657 32.5457 18.2801C31.8176 17.0692 31.8176 17.0692 31.8176 17.0692M27.2702 19.3033C27.2702 19.3033 27.0972 18.2691 27.345 18.1862C28.1513 17.9169 28.8827 17.6277 28.8827 17.6277L31.8176 17.0692M27.2702 19.3033C30.42 19.3033 31.538 18.2801 30.979 16.9333M31.8176 17.0692C31.8176 17.0692 30.3956 14.509 29.3207 10.4685C28.7113 8.17818 29.5904 6.83305 30.42 6.17838M30.42 6.17838C31.0539 5.67809 31.5426 5.61987 32.0082 5.61987C32.4548 5.61987 33.4581 7.38664 34.5555 9.52941M30.42 6.17838C30.8475 7.82276 32.0496 10.8698 34.5555 9.52941M38.4582 16.9333C41.8809 17.6277 40.9778 17.5148 43.2785 18.2801C45.5148 19.024 45.8267 18.8337 46.633 21.258C47.4392 23.6823 46.7895 33.3647 47.327 35.2503M38.4582 16.9333C37.8298 16.3035 36.0995 12.5443 34.5555 9.52941M38.4582 16.9333L40.6082 21.782M47.327 35.2503C47.327 36.6169 46.7895 41.4458 45.9832 48.988C45.1769 56.5304 47.327 61.6486 47.327 61.6486L33.8894 66.497C33.8894 66.497 33.8894 63.8033 33.352 61.1096C31.2019 59.4934 26.0957 51.9511 24.4832 48.988C23.6769 47.5065 23.9457 42.7926 23.4082 41.1764C21.7957 39.0215 23.0694 34.3829 23.0694 34.3829C23.0694 34.3829 23.1028 33.9305 23.0694 33.5451M47.327 35.2503C47.327 35.2503 43.0269 30.4017 42.2207 27.708C42.0959 27.2913 41.9905 26.9132 41.8984 26.5638M40.6082 21.782C41.01 22.899 42.3972 22.9335 42.3972 22.9335C42.3972 22.9335 42.0998 22.6543 41.8984 24.0506C41.6969 25.4468 41.8984 26.5638 41.8984 26.5638M40.6082 21.782C41.0127 22.8644 41.3951 24.6552 41.8984 26.5638M35.5813 34.3829H33.8588M30.5443 41.6902C30.5443 41.6902 29.6887 41.085 30.1404 39.6887C30.3561 38.2105 30.019 37.0583 30.6644 36.3281C30.7505 36.2306 30.8542 36.1406 30.979 36.0584C32.0387 35.3603 33.8588 34.3829 33.8588 34.3829M28.7703 34.3829C28.8088 34.7013 28.7851 34.5328 28.7703 34.9414M28.7703 34.3829C28.7703 34.3829 29.3589 34.0115 29.7145 33.5451C30.1404 32.9866 30.6644 32.4281 30.6644 32.4281M30.6644 32.4281L32.5457 31.8696M30.6644 32.4281C30.6644 32.4281 30.4073 32.4281 29.7145 31.3111M32.5457 31.8696L33.2153 32.9866L33.8588 34.3829M32.5457 31.8696C33.2124 31.2814 33.5198 30.7507 33.8588 29.3564M28.7703 34.9414L29.7145 34.6622L30.5443 34.3829L30.979 33.8244L30.5443 34.9414L30.6644 36.0584" stroke="#3A3A3A"/>
</svg>
