<svg width="72" height="72" viewBox="0 0 72 72" fill="none" xmlns="http://www.w3.org/2000/svg">
<path d="M47.5279 42.2728C47.5279 42.2728 49.589 42.8587 51.0612 42.2728C51.7475 41.7266 51.9154 41.6388 52.5334 40.8082M47.5279 42.2728C47.5279 42.2728 47.2334 43.7375 45.4667 45.495C43.7001 46.9597 41.9334 45.495 41.9334 45.495M47.5279 42.2728C47.5279 42.2728 46.939 36.7071 46.6445 34.9496C46.3501 33.192 45.4667 27.6263 45.4667 27.6263M52.5334 40.8082C53.241 39.8571 54.3975 38.1144 55.1834 36.7071C56.0667 33.4849 56.3612 25.2829 57.2445 23.2324C58.1279 21.7678 60.189 20.889 60.189 20.889C60.189 20.889 57.2445 15.9092 55.7723 14.4445C54.3001 12.9799 50.4723 8.58594 50.4723 8.58594C50.4723 8.58594 46.3501 11.5152 43.1112 12.9799C39.8723 14.4445 36.339 13.2728 33.689 13.8587C31.0389 14.4445 26.6222 16.2021 24.5612 18.5455C22.5001 20.889 23.3834 21.4748 19.2612 24.1112C16.1464 26.1032 14.7128 26.9245 13.5629 27.3334M52.5334 40.8082C52.5334 40.8082 51.9445 37.5859 51.3556 35.2425C50.7667 32.8991 51.0612 31.7274 49.8834 29.9698C49.6563 29.6309 49.4401 29.2919 49.2222 28.974M41.9334 45.495C41.9334 45.495 41.639 47.5455 39.8723 47.8385C38.1056 48.1314 36.6334 48.1314 35.7501 46.6667C34.8667 45.2021 33.689 42.8587 33.689 42.8587M41.9334 45.495C41.9334 45.495 41.5666 39.6364 41.2722 36.7071C41.2722 34.0708 39.8723 28.7981 39.8723 28.7981M45.4667 27.6263C45.393 27.5236 45.3178 27.4261 45.2414 27.3334M45.4667 27.6263C47.368 26.6806 48.3102 27.6433 49.2222 28.974M33.689 42.8587C33.689 42.8587 31.039 47.8385 30.4501 51.3536C29.8612 54.8688 28.9778 57.7981 28.6834 61.0203C28.0945 64.2425 26.6223 64.8284 24.5612 65.4142C22.7945 65.7071 24.2667 54.2829 24.2667 54.2829L27.8001 32.8991C27.8001 32.8991 27.8001 31.1415 27.2112 29.9698C26.6223 28.7981 26.0334 28.7981 24.5612 28.7981C23.089 28.7981 17.789 31.7274 15.4334 32.6061C13.0778 32.8991 12.4889 32.6061 10.7223 32.0203C8.95561 31.4344 8.36672 29.9698 8.66117 28.7981M33.689 42.8587C33.689 42.8587 34.8667 45.109 34.8667 42.5657C35.0889 41.6869 35.0889 41.394 35.0889 41.394C35.0889 41.394 35.385 39.6364 35.0889 36.1213C34.8667 33.4849 35.4556 31.7274 34.8667 29.9698C35.1538 28.5416 36.5318 24.8565 39.6325 28.5051M39.8723 28.7981C39.7916 28.6959 39.7117 28.5983 39.6325 28.5051M39.8723 28.7981C39.8723 27.8757 40.0411 27.2174 40.2822 26.7476M8.66117 28.7981C8.95561 27.6263 11.0167 27.9193 12.4889 27.6263C12.8488 27.5547 13.191 27.4656 13.5629 27.3334M8.66117 28.7981C8.66117 28.7981 11.6779 28.7981 12.4889 28.5051C13.3 28.2122 13.5629 27.3334 13.5629 27.3334M39.6325 28.5051C39.6325 28.5051 38.9166 30.8486 37.15 30.5556C35.3833 30.2627 35.0889 29.1562 35.0889 29.1562M49.2222 28.974C48.5351 29.5012 46.9255 30.2041 45.9833 28.7981M45.2414 27.3334C43.7932 25.5758 41.9334 25.5758 41.9334 25.5758C41.9334 25.5758 40.8834 25.5758 40.2822 26.7476M45.2414 27.3334C45.2414 27.3334 44.8055 28.7981 42.7444 28.5051C40.6833 28.2122 40.2822 26.7476 40.2822 26.7476M43.9945 21.4748C43.9945 21.4748 41.9334 24.697 39.2834 25.8688C36.6334 27.0405 32.5112 27.6263 32.5112 27.6263" stroke="#3A3A3A"/>
</svg>
