<svg width="72" height="72" viewBox="0 0 72 72" fill="none" xmlns="http://www.w3.org/2000/svg">
<path d="M39.1134 25.973C39.1134 25.973 37.3069 23.7705 37.0489 22.7435C36.7908 21.7165 36.5327 20.0676 36.5327 20.0676C36.5327 20.0676 35.7586 19.8109 34.7263 18.7838C33.694 17.7568 32.3871 16.473 32.3871 16.473C32.3871 16.473 28.7909 15.0408 27.8876 14.9124C26.9843 14.784 24.9198 13.757 24.9198 13.757C24.9198 13.757 23.3715 12.9868 23.1134 10.4192C22.9979 9.27019 23.3959 8.87078 23.871 8.78016M39.1134 25.973C39.1134 25.973 34.1937 24.1757 32.3871 23.919C31.3654 23.7738 27.8876 29.3109 27.8876 29.3109L27.7014 32.6487M39.1134 25.973L40.1292 28.5406M40.6453 34.1892L38.8553 37.0136L34.7263 39.0676L31.6129 37.5271C31.6129 37.5271 29.8066 35.5813 27.8876 33.1622C27.8876 33.1622 26.6803 29.5391 25.1614 28.5406C24.3947 28.0366 23.8102 27.7143 23.2202 27.5847M38.3227 27.7703L35.484 29.5676M35.484 29.5676L33.4195 28.2838L32.6453 26.2298C32.6453 26.2298 33.3734 27.7988 33.1615 28.5406C33.1293 28.6533 32.9244 28.9293 32.6453 29.2691M35.484 29.5676L33.9356 30.5947M30.6883 36.5001C30.6883 36.5001 31.4797 35.9658 31.6129 35.2163C31.7461 34.4668 30.8553 31.3305 30.8553 31.3305H29.2905L30.6883 31.4719C30.6883 31.4719 31.1684 31.0876 31.6129 30.5947M33.9356 38.2974V36.5001L33.7949 35.9865M32.9034 31.8784C32.9034 32.2037 33.0754 33.2121 33.1615 33.6757L33.7949 35.9865M32.9034 31.8784C32.9034 31.5532 33.5916 30.8871 33.9356 30.5947M32.9034 31.8784C32.9034 31.8784 32.0938 31.5637 31.8711 31.3305C31.6604 31.1099 31.6129 30.5947 31.6129 30.5947M33.9356 30.5947C33.9356 30.5947 33.4163 30.3388 33.1615 30.0811C32.897 29.8137 32.6453 29.2691 32.6453 29.2691M31.355 24.6892C31.355 24.6892 30.6055 24.1309 30.0647 24.1757C29.6155 24.213 29.0324 24.6892 29.0324 24.6892C29.0324 24.6892 27.9545 26.0682 27.226 27.0507M26.3216 29.8244C26.3216 29.8244 26.3143 28.3602 26.7097 27.7703C26.8272 27.5951 27.0114 27.3401 27.226 27.0507M32.6453 29.2691C32.3111 29.6761 31.9916 30.1748 31.6129 30.5947M27.226 27.0507C27.226 27.0507 26.3235 27.146 25.9356 27.5136C25.6093 27.8228 25.4195 28.5406 25.4195 28.5406M33.7949 35.9865C33.7949 35.9865 35.1764 35.8773 36.0002 35.5813C36.5268 35.3921 37.2905 34.9595 37.2905 34.9595M23.871 8.78016C24.4575 8.66828 25.1614 9.02709 25.1614 9.02709C25.1614 9.02709 27.4746 9.51735 29.2905 9.97947M23.871 8.78016C23.871 8.78016 24.0888 9.46591 24.3873 9.79736C25.014 10.4934 25.7719 10.3669 26.7097 10.4192C27.7306 10.4761 29.2905 9.97947 29.2905 9.97947M29.2905 9.97947C29.9055 10.136 30.4636 10.2893 30.8553 10.4192C32.4038 10.9327 34.4681 11.703 34.9844 11.9597C35.5005 12.2165 39.3549 14.419 40.9032 16.473C42.4516 18.5271 48.3871 26.4865 48.3871 26.4865C49.1779 28.6489 48.3871 31.3248 48.3871 35.5813C48.3871 39.8379 48.3871 43.946 48.3871 43.946C48.3871 43.946 48.8776 48.1874 49.1779 49.4462C50.1936 53.7028 51.2424 58.6894 51.2424 58.6894L39.3715 64.0814C39.3715 64.0814 39.6295 63.3111 39.3715 61.2571C39.1134 59.203 39.3715 59.7165 38.8553 58.6894C38.3392 57.6624 36.2747 56.3786 34.7263 54.5813C33.1779 52.784 31.3715 51.392 30.8553 48.8244C29.5484 46.4053 26.7097 41.1217 26.7097 41.1217L23.871 36.5001C23.871 36.5001 23.7599 34.0173 22.8387 31.8784C22.0647 30.0811 20.7744 27.9415 21.2903 27.7703C22.0571 27.516 22.6413 27.4576 23.2202 27.5847M23.2202 27.5847C23.2202 27.5847 24.0246 28.2499 24.3873 28.7974C24.9592 29.6606 25.1614 31.3305 25.1614 31.3305C25.1614 31.3305 24.4189 31.8784 23.871 31.8784C23.6131 31.8784 22.8389 31.6217 22.8389 31.6217" stroke="#3A3A3A"/>
</svg>
