<svg width="72" height="72" viewBox="0 0 72 72" fill="none" xmlns="http://www.w3.org/2000/svg">
<path d="M43.3412 31.6363C44.5907 33 43.7997 33.1795 45.5515 37.3636C47.3033 41.5477 46.0798 38.7272 46.8722 41.0886C46.4411 44.634 46.0798 46.9091 45.0232 50.1818C43.7025 54.2727 43.6054 55.6363 43.3412 57.5454C43.0771 59.4545 42.5488 64.2703 42.5488 64.2703C42.5488 64.2703 38.3226 63.7249 33.8323 63.7249C29.342 63.7249 25.9082 65.3612 25.9082 65.3612C25.9082 65.3612 26.2695 59.1818 25.7411 59.1818C23.364 52.909 22.7968 50.9999 22.5715 47.3613C22.3072 43.0909 22.1629 42.4522 22.5716 38.0886C22.8357 35.2681 23.0999 33.8182 23.364 31.0909C23.6281 28.3636 23.364 21.8181 23.6281 21.2727C23.6281 21.2727 23.6281 13.909 24.1564 13.0909C24.6847 12.2727 26.5336 12.5454 26.7978 13.6363C27.326 15.8182 27.238 18.909 27.326 19.909L27.9047 26.1818M43.3412 31.6363C41.7565 29.9068 41.1981 29.2683 40.797 28.9091C40.797 28.9091 39.6625 27.0334 38.6839 25.7375M43.3412 31.6363C43.3412 31.6363 43.2158 28.9091 43.3412 27.2727C43.5503 24.5454 43.5503 23.744 43.5503 23.744M32.8729 23.1818C33.4012 21.6386 35.8249 20.3541 37.3632 21.5454C37.9835 22.0258 38.2397 22.6001 38.3989 23.4545M32.8729 23.1818C32.8729 25.3636 33.304 25.5431 33.304 27.7249C33.304 28.3234 33.2915 28.8808 33.2841 29.414M32.8729 23.1818C32.9671 22.5919 32.6476 18.2489 32.5117 15C32.392 12.1379 32.6354 10.6018 32.5117 10.0909C32.2475 8.99996 32.1504 6.99765 29.7732 7.81583C27.8543 8.47625 28.2855 13.8158 28.2855 13.8158C28.2855 13.8158 28.2156 19.7295 27.8543 23.1818C27.8543 27.7249 28.2855 33.4522 28.2855 33.4522M31.0239 46.3636C31.0239 46.3636 33.0399 44.4545 33.8323 43.3636C34.6247 42.2727 38.6839 40.6363 38.6839 40.6363M36.4737 46.3636C38.0585 43.9091 39.7404 40.9091 40.2688 40.6363M40.2688 40.6363C40.2688 39.5454 40.2432 39.678 40.0046 38.0886C39.7987 36.7163 39.4763 36 39.2122 34.9091C36.835 33.2727 36.3066 31.9998 35.7784 30C34.1936 24 37.5303 24.5454 37.5303 24.5454C37.7861 24.6335 38.2173 25.1196 38.6839 25.7375M40.2688 40.6363C40.2688 40.6363 40.201 42.1051 40.797 43.3636C41.2679 44.3578 41.8535 44.9999 41.8535 44.9999M37.8915 33.9623C37.8915 33.9623 37.9429 35.8524 37.3632 36.2727C36.7413 36.7236 35.2501 36.5454 34.8889 36.2727C34.5277 36 34.3606 36.1795 33.8323 34.2704C33.4489 32.8849 33.2647 30.8249 33.2841 29.414M32.8729 33L33.2841 29.414M38.6839 25.7375C38.5749 24.7948 38.5108 24.0554 38.3989 23.4545M38.3989 23.4545C38.3989 23.4545 38.8142 22.7987 39.2122 22.5431C40.0006 22.0369 40.6914 22.3003 41.5894 22.5431C42.3305 22.7435 42.8229 22.8721 43.3412 23.4545C44.0584 24.2605 43.8819 25.1483 44.2308 26.1818C44.6819 27.5177 44.5624 29.7585 45.0232 31.0909C45.5473 32.6062 45.4848 32.4052 46.1611 34.2704C46.6894 35.7272 46.3439 39.2752 46.3439 39.2752M26.7978 34.2704C26.7978 34.2704 28.0638 33.7036 28.9108 33.4522C29.7208 33.2119 31.0239 33 31.0239 33M25.2129 41.0886C26.2694 41.1818 29.3334 40.5818 29.9673 40.3636C30.6013 40.1454 34.4577 39.5446 35.7784 38.7272L38.6839 36.8181M36.1971 31.3636C36.1971 31.3636 35.5196 31.3255 35.2501 31.6363C34.8882 32.0537 34.7465 32.7272 34.7465 33C34.7465 33.7455 34.8889 34.9091 34.8889 34.9091L35.2501 35.4545C35.2501 35.4545 35.6877 35.7272 36.3066 35.7272C36.811 35.7272 37.7651 35.4545 37.7651 35.4545M36.8349 24.8181C36.8349 24.8181 35.7784 26.1818 36.1971 27.7249C36.3735 28.3751 36.8349 28.9091 36.8349 28.9091C36.8349 28.9091 37.351 29.8434 37.8915 30C38.432 30.1565 38.7245 29.701 39.2122 29.414C39.6524 29.1549 40.4596 28.3636 40.4596 28.3636" stroke="#3A3A3A"/>
</svg>
