<svg width="72" height="72" viewBox="0 0 72 72" fill="none" xmlns="http://www.w3.org/2000/svg">
<path d="M30.1262 9.77044C27.4895 9.13844 28.0919 12.3934 28.8704 13.9672L31.2242 17.377L32.9806 21.0491L35.0149 24.8287M30.1262 9.77044C30.1262 9.77044 29.7003 10.9237 29.8667 11.4516C30.1021 12.1989 30.5186 12.5918 31.2242 12.918C31.7607 13.166 32.7211 13.1247 32.7211 13.1247M30.1262 9.77044C30.2526 10.026 31.4876 11.589 32.7211 13.1247M44.6578 31.1447C44.6578 31.1447 41.0249 26.6648 40.2464 24.8287C39.2501 23.1475 39.2501 22.8172 37.911 20.7868C35.835 17.6393 35.316 16.3278 35.316 16.3278C35.316 16.3278 34.0194 14.7413 32.7211 13.1247M23.6805 4.63197C23.6805 4.63197 14.3387 3.58279 13.5603 8.04181C12.7818 12.5008 23.1615 11.4516 23.1615 11.4516M34.0186 35.2131L32.4616 36.2622L32.2438 37.1566M34.0186 35.2131C34.0186 35.2131 35.0825 36.227 35.835 36.7868C35.9947 36.9056 36.1774 37.0316 36.3668 37.1566M34.0186 35.2131L33.8007 33.1147M32.2438 37.1566C32.2438 37.1566 32.8467 38.5189 32.7211 39.4098C32.6449 39.95 32.5004 40.2411 32.2438 40.7213C31.9375 41.2943 31.2242 42.0327 31.2242 42.0327M32.2438 37.1566L31.2242 36.2622M28.5279 35.2131L29.6072 32.5901C29.6072 32.5901 33.3038 28.3075 34.0186 28.6557C35.316 29.2877 39.2501 32.3278 39.2501 32.3278C40.5059 33.377 42.7749 34.3987 44.6578 35.9999C45.1748 36.4396 45.9553 38.0983 45.9553 38.0983M28.5487 31.5409C28.0928 29.8914 27.5657 29.9672 27.0122 29.2877C26.9347 29.1926 26.8544 29.1049 26.7719 29.0254M28.5487 31.5409C28.7372 32.2228 28.8704 32.9489 28.8704 33.6393C28.8704 34.5885 28.4433 35.2208 28.3097 35.9999C28.111 37.1586 28.9747 37.7847 29.1298 38.0983C29.3893 38.6229 29.9083 39.7795 30.6868 41.091C31.4653 42.4025 32.2438 43.9762 32.2438 43.9762C32.2438 43.9762 34.9808 44.459 36.354 43.6065C37.5285 42.8773 38.3549 41.4744 38.4299 40.7213C38.5447 39.5689 37.1325 38.5742 37.1325 38.0983C37.1325 37.7049 38.6246 39.2131 37.911 38.0983C37.911 38.0983 37.0905 37.6343 36.3668 37.1566M28.5487 31.5409C28.5487 31.5409 28.6573 30.4854 28.8704 29.9672C29.3234 28.8651 28.912 29.6012 30.6868 28.1311C32.4616 26.661 33.7591 25.091 36.354 24.8287C36.8905 24.7745 38.9489 26.8196 40.2464 27.6065C41.5855 28.6557 48.6758 34.3287 48.9309 34.7959C49.5882 35.9999 50.1488 53.1565 50.4083 54.468C50.6678 55.7795 53.2628 59.1895 53.2628 59.1895L41.0666 67.3206C41.0666 67.3206 40.2881 64.6976 39.2501 63.1239C38.2121 61.5501 35.3577 60.5009 33.8007 59.1895C32.2438 57.878 30.9463 53.6812 27.5729 50.5336C26.7295 49.7467 25.4969 43.9762 23.421 41.091C22.6426 37.9434 24.4173 34.4262 24.4173 33.6393C24.4173 33.5011 24.4093 33.3224 24.3989 33.1147M24.3989 33.1147C24.3502 32.1396 24.2489 30.5237 24.6768 29.4426C25.1433 28.2637 26.039 28.3189 26.7719 29.0254M24.3989 33.1147H25.4553H26.2337C26.2337 33.1147 26.6705 31.8567 26.7719 31.0163C26.8651 30.2446 26.7719 29.0254 26.7719 29.0254M36.3668 37.1566C36.3668 37.1566 35.9198 38.6323 35.835 39.4098C35.7121 40.5365 35.835 42.0327 35.835 42.0327L35.0149 44.0421" stroke="#3A3A3A"/>
<path d="M38.6899 22.0983L39.2089 18.6885C39.2089 18.6885 39.0877 14.9383 39.4684 13.9672C40.0284 12.5387 42.3229 11.8689 42.3229 12.6557M42.3229 12.6557C42.3229 13.9672 42.3229 16.5902 42.3229 16.5902V22.0983L42.8418 28.3934M42.3229 12.6557L41.2849 13.4426C41.2849 13.8798 41.1728 14.4123 41.2849 15.0164C41.4519 15.9169 42.0634 16.5902 42.3229 17.1148" stroke="#3A3A3A"/>
<path d="M22.8491 9.4845L26.3523 11.5289L22.8491 13.5733V9.4845Z" fill="#3A3A3A"/>
</svg>
