<svg width="72" height="72" viewBox="0 0 72 72" fill="none" xmlns="http://www.w3.org/2000/svg">
<path d="M24.1724 39.8613C23.8777 42.5346 23.5831 45.2079 23.2884 47.8811C22.9938 50.5544 22.4045 57.3861 22.4045 57.3861C22.4045 57.3861 21.8152 63.6237 24.1724 63.9207C26.5295 64.2178 27.708 59.7623 27.708 59.7623L29.4759 50.8514C29.4759 50.8514 30.6545 47.5841 31.2438 42.8316C31.833 38.0791 33.3063 35.4059 33.3063 35.4059C33.3063 35.4059 34.4848 37.1881 34.7795 39.8613C35.0741 42.5346 34.7795 44.0197 34.7795 46.0989C34.7795 48.1782 35.6634 58.8712 35.6634 58.8712C35.6634 58.8712 35.958 65.7029 39.1991 65.4059C42.4402 65.1088 42.4402 58.2772 42.4402 58.2772C42.4402 58.2772 42.1455 51.7425 41.8509 45.2079C41.5563 38.6732 42.4402 35.4059 42.4402 35.4059C42.4402 35.4059 44.7973 41.3465 45.6813 45.2079C46.5652 49.0692 47.6965 54.1187 47.6965 54.1187C47.6965 54.1187 48.2858 58.2772 50.1009 58.2772C50.9376 58.2772 51.9156 58.2772 52.1161 57.089C52.2063 56.5551 52.5053 56.198 52.458 54.1187C52.4108 52.0395 51.8215 46.693 51.5741 42.2376C51.2795 39.5643 48.9223 33.0296 49.217 30.6534C49.5116 28.2772 50.9848 24.4158 50.1009 21.7425C49.217 19.0692 48.333 17.2871 47.1545 14.3168C45.9759 11.3465 45.3866 6.59399 45.3866 6.59399L26.2348 6.89102C26.2348 6.89102 23.8777 12.5346 23.2884 15.8019C22.6991 19.0692 21.5206 25.3069 21.5206 25.3069C21.5206 25.3069 20.342 27.6831 20.6366 30.0593C20.9313 32.4356 20.9313 31.5445 21.5206 33.9207C21.8152 35.1088 21.5206 39.2673 22.4045 39.8613C23.2884 39.8613 22.4045 39.8613 24.1724 39.8613ZM24.1724 39.8613C24.7292 38.1214 25.5983 35.4059 25.5983 35.4059M22.8836 62.7326C22.8836 62.7326 22.8836 60.6534 23.2884 58.2772C23.3598 57.8585 24.7192 58.0734 25.5983 58.2772C26.2022 58.4171 26.7769 58.5742 26.7769 59.1683C26.7769 59.7623 26.3291 62.7326 26.3291 62.7326M37.2831 64.5148C37.2831 64.5148 37.0894 62.1385 37.0894 60.3564C37.0894 60.0593 37.5366 59.9824 37.9733 59.7623C38.5908 59.4511 39.0751 59.2822 39.7411 59.4653C40.2376 59.6018 40.8534 59.5449 40.9197 60.0593C41.2259 62.4356 41.2259 63.9207 41.2259 63.9207" stroke="#3A3A3A"/>
<path d="M49.4644 57.9803L49.1697 55.307C49.1697 55.307 48.9253 54.3649 49.1695 54.1189C49.7591 53.5248 50.9371 53.5248 51.2317 53.8218C51.5264 54.1189 51.821 55.9011 51.821 55.9011L52.1157 57.0892" stroke="#3A3A3A"/>
</svg>
