<svg width="72" height="72" viewBox="0 0 72 72" fill="none" xmlns="http://www.w3.org/2000/svg">
<path d="M43.4198 35.4416C43.8079 34.1361 43.5312 33.9542 43.9734 30.4145M34.0092 36.5587C34.0092 36.5587 37.8083 33.6353 38.1609 31.7381M42.5896 39.91C42.5896 39.91 41.7981 41.1271 40.652 42.4235C40.0568 43.0967 39.3548 43.962 38.5941 44.6988M43.9734 30.4145C43.5312 27.901 43.7231 22.4962 43.8079 20.7307C43.9734 17.2884 43.8079 20.0812 43.8079 16.4505C43.8079 12.8199 43.8079 11.7028 43.8079 11.7028C43.8079 11.7028 44.3615 8.07216 46.299 7.79288C46.5766 7.75287 46.8144 7.80458 47.0182 7.92255M43.9734 30.4145C43.9734 30.4145 42.0359 32.928 40.652 32.928M38.5941 16.4505C41.315 22.1256 43.7689 28.4596 43.7689 28.4596L38.5941 16.4505ZM38.5941 16.4505C37.8264 14.8492 37.132 13.3003 36.5002 11.9609M33.534 44.937C31.7939 43.0801 30.5763 40.2802 30.5763 40.2802L29.4692 37.4874C29.4692 37.4874 28.1874 34.6575 26.5358 34.1361C24.9024 33.6203 21.6202 33.8451 22.2728 35.1623C22.4324 35.4844 22.6001 35.8646 22.7702 36.2794M33.534 44.937C33.8261 45.2488 34.133 45.534 34.4513 45.7749C35.8444 46.8291 37.3037 45.9488 38.5941 44.6988M33.534 44.937V42.4235L33.1788 41.228C33.1788 41.228 32.7558 39.3293 33.0429 37.9551C33.0429 37.9551 31.989 36.3132 31.518 35.1623C31.047 34.0113 30.5763 31.6389 30.5763 31.6389M38.1609 31.7381C38.2073 31.4886 38.2113 31.2327 38.1609 30.9731C37.9926 30.1048 37.3305 27.6217 37.3305 27.6217C37.3305 27.6217 37.0538 26.3163 36.5002 25.1992C35.9466 24.0821 34.7282 20.6397 34.1746 19.2433C33.621 17.8469 32.2371 13.937 32.2371 13.937C32.2371 13.937 30.4109 9.74784 33.1788 7.79288C33.294 7.71145 33.4124 7.67266 33.534 7.6731M38.1609 31.7381L35.0049 27.0632C35.0049 27.0632 34.1684 25.087 33.1788 25.1992C32.9143 25.2292 32.705 25.2569 32.3484 25.3875M29.4692 31.7381C29.4692 31.7381 29.6172 32.9395 29.4692 34.1361M29.4692 31.7381C29.4692 31.7381 29.5793 33.1996 29.4692 34.1361M29.4692 31.7381C29.4692 31.7381 30.0707 31.7365 30.5763 31.6389M34.7094 35.4416C34.7094 35.4416 33.1788 34.0451 32.6251 32.928C32.1848 32.0395 32.0716 30.6938 32.0716 30.6938C32.0716 30.6938 31.4726 31.3277 30.9644 31.5316C30.8529 31.5764 30.7184 31.6114 30.5763 31.6389M29.4692 34.1361C29.2867 35.6107 28.801 37.0778 28.801 36.2794C28.801 35.2999 26.9809 34.5306 25.9824 34.1361M29.0269 26.7839C27.9724 27.382 26.9945 28.2282 26.5358 28.4596C25.8356 28.8128 25.9313 29.9233 25.7055 30.9731C25.4698 32.0692 25.4287 33.8451 25.4287 33.8451C25.4287 33.8451 25.5066 33.9481 25.9824 34.1361M29.0269 26.7839C28.8942 25.7599 28.3861 24.725 28.1966 23.1533C28.0399 21.8541 27.643 21.7569 27.9198 19.8019C28.0162 19.1212 29.1183 17.5368 29.4692 18.1262C30.1341 19.2433 30.9644 21.7569 30.9644 21.7569L32.3484 25.3875M29.0269 26.7839C30.0814 26.1858 31.3932 25.7373 32.3484 25.3875M25.9824 34.1361C26.2064 34.957 27.3065 36.7124 27.6919 37.4874C28.0773 38.2625 27.9198 38.5136 27.9198 38.5136C27.9198 38.5136 27.1073 39.0831 26.5358 39.3515C25.916 39.6425 24.8751 39.91 24.8751 39.91L22.7702 36.2794M22.7702 36.2794C23.78 38.7416 24.8751 42.4235 24.8751 42.4235C24.8751 42.4235 26.9782 46.0541 27.2549 48.5677C27.2549 48.5677 28.9156 53.874 30.5763 56.3875C32.237 58.901 34.1745 61.5056 34.4513 62.6227C34.7281 63.7398 35.0049 65.4155 35.0049 65.4155C35.0049 65.4155 38.3263 64.2983 41.6477 64.5776C44.9692 64.8569 49.121 66.2533 49.121 66.2533C49.121 66.2533 50.5049 44.1901 51.3352 40.8388C52.1656 37.4875 52.0001 37.6757 49.7859 30.6938C49.3699 26.9156 48.704 18.0892 48.3988 13.937C48.298 12.5646 48.2365 11.7028 48.2365 11.7028C48.2365 11.7028 48.2365 8.62798 47.0182 7.92255M33.534 7.6731V9.18929C33.534 9.18929 34.2606 10.5486 35.0049 11.1442C35.5251 11.5606 36.5002 11.9609 36.5002 11.9609M33.534 7.6731C34.351 7.67603 35.3158 9.45027 36.5002 11.9609M47.0182 7.92255L46.7414 9.18929C46.7414 9.18929 46.9883 10.413 47.2949 11.1442C47.5854 11.837 48.2365 12.8199 48.2365 12.8199M40.0985 36.5587C40.0985 37.0055 40.3753 38.8713 40.0985 40.7479C39.8217 42.6244 38.5941 44.6988 38.5941 44.6988" stroke="#3A3A3A"/>
</svg>
