<svg width="72" height="72" viewBox="0 0 72 72" fill="none" xmlns="http://www.w3.org/2000/svg">
<path d="M44.0808 27.1529C44.3886 27.3271 44.6675 27.5064 44.8936 27.6856C46.2482 28.7594 47.3318 32.5177 47.3318 32.5177C47.3318 32.5177 48.6865 40.0343 49.7702 42.7188C50.8539 45.4033 52.7502 51.846 53.2921 53.4568C53.834 55.0675 55.4595 56.9466 55.4595 56.9466L45.4353 65C45.4353 65 45.1644 63.6579 44.3516 63.3894C43.5388 63.121 40.2878 61.2418 37.0367 59.6311C33.7856 58.0204 32.7019 54.2621 31.3473 52.6514C29.9927 51.0407 27.5544 49.1616 25.387 47.014C23.2196 44.8664 21.0522 42.1819 20.2395 40.8396C19.4267 39.4974 19.3333 38.692 19.3333 37.8867C19.3333 37.0813 20.6623 35.9865 21.641 35.7391C21.641 35.7391 24.3309 36.138 26.7692 38.554C29.2076 40.9701 29.7219 42.3703 31.0765 43.1757C31.3685 43.3493 33.2988 44.4209 33.6106 44.5979M44.0808 27.1529C42.5443 26.2833 40.2878 24.6697 40.2878 24.6697L33.6106 19.5691L29.3333 15.6053L24.7179 12.3648C24.7179 12.3648 20.7813 8.50176 19.6976 8.77021C19.1755 8.89955 18.5641 10.8243 18.5641 10.8243C18.5641 10.8243 18.7125 12.6395 19.3333 13.3918M44.0808 27.1529C44.0808 27.1529 39.8715 26.4865 37.975 26.4865C36.224 26.2297 33.1795 25.2027 33.1795 25.2027M27.5384 24.6697C27.5384 24.6697 24.9743 23.794 22.6666 20.3243C19.1446 18.7136 17.5384 16.2161 17.5384 16.2161C17.5384 16.2161 16.4693 14.4657 17.282 13.3919C18.0948 12.3181 18.4561 12.3736 19.3333 13.3918M27.5384 24.6697C27.5384 24.6697 27.224 24.7126 28.3077 24.1757C29.2447 24.1757 33.1795 25.2027 33.1795 25.2027M27.5384 24.6697C27.5384 24.6697 26.703 25.7067 25.7436 27.2567M19.3333 13.3918C21.0418 14.967 22.6941 16.1731 24.7179 17.2432M33.1795 25.2027C33.1795 25.2027 29.4835 22.1444 27.7948 20.7059M24.7179 17.2432C25.4221 18.133 26.504 19.6063 27.7948 20.7059M24.7179 17.2432C24.7179 17.2432 26.493 19.4517 27.7948 20.7059M33.6106 44.5979C34.745 45.2421 35.9741 45.7665 37.0367 45.1348C38.3914 44.3295 40.2878 42.7188 40.2878 42.7188M33.6106 44.5979C33.6106 44.5979 38.4387 43.8412 38.5641 40.3513M28.0513 33.9324C28.5641 34.1892 29.97 33.4926 30.359 33.1621M28.0513 33.9324C28.0513 33.9324 28.5179 34.805 28.8205 35.473C29.0604 36.0026 29.5015 36.6955 29.5897 37.2703C29.6844 37.8871 29.5581 38.4855 29.3333 39.0675C29.2146 39.375 28.5641 40.5201 28.5641 40.5201M28.0513 33.9324L26.2564 33.1621M31.0765 31.8784L30.359 28.027M31.0765 31.8784C30.8718 32.3919 30.8012 32.7865 30.359 33.1621M31.0765 31.8784C31.5873 31.7096 33.571 33.57 34.7179 34.1892M36.2564 34.1892C36.7982 35.5314 37.355 37.6668 38.5641 40.3513M36.2564 34.1892L37.0367 32.9054M36.2564 34.1892C35.9545 34.2889 35.3958 34.5551 34.7179 34.1892M38.5641 40.3513L39.8461 38.554M19.6976 18.7838C19.6976 18.7838 19.1078 19.3903 19.3333 20.0675C19.5897 20.8378 19.6334 21.1941 20.6154 21.8648C20.9913 22.1216 22.4102 23.1219 22.4102 23.1219L23.9487 25.4594L25.387 26.4865L25.7436 27.2567M25.7436 27.2567L24.2051 30.5946C24.2051 30.5946 23.5778 32.0916 23.4359 33.1621C23.3035 34.1611 24.7179 36.9584 24.7179 36.9584M30.359 33.1621L31.8974 35.7391M31.8974 35.7391C31.8974 35.7391 31.6552 36.5592 31.641 37.2703C31.6248 38.0804 31.9919 39.0439 32.1538 39.8378C32.4315 41.1988 33.4359 42.4054 33.4359 42.4054M31.8974 35.7391L33.4359 35.2162L34.1014 34.6653L34.7179 34.1892M33.4359 42.4054V44.2027M33.4359 42.4054C33.4359 42.4054 34.1014 41.3784 34.7179 41.1216C35.5079 40.7926 37.0367 40.3513 37.0367 40.3513" stroke="#3A3A3A"/>
<path d="M22.154 35.7297C22.5643 35.952 23.1796 36.8412 23.9489 37.6748C24.7181 38.5083 24.923 38.7741 24.9745 39.6198C25.0188 40.3461 24.8867 40.4454 24.4617 41.0091C24.0561 41.5472 23.7018 41.7172 23.1796 42.1205C22.8856 42.3476 23.1796 42.1205 22.6668 42.3984C21.9673 42.7774 21.6599 41.9086 21.1284 41.2869C20.7434 40.8367 19.3335 39.0641 19.3335 39.0641" stroke="#3A3A3A"/>
</svg>
