<svg width="72" height="72" viewBox="0 0 72 72" fill="none" xmlns="http://www.w3.org/2000/svg">
<path d="M40.82 59.8318C40.82 59.8318 40.7811 49.3727 41.0511 47.3614C41.3211 45.35 41.3211 34.0864 41.3211 34.0864M40.82 59.8318C40.82 59.8318 40.28 63.5864 39.74 63.8546M40.82 59.8318C40.82 59.8318 41.36 60.9046 41.9 61.386M29.4411 43.4727C29.4411 43.4727 28.0911 45.6182 26.7411 43.2046C25.3911 40.7909 25.3911 38.6455 25.3911 38.6455C25.3911 38.6455 24.3111 35.6955 23.7711 33.8182C23.2311 31.9409 23.771 29.7955 24.0411 28.7227C24.3111 27.65 24.8511 20.6773 25.9311 18.2637C27.9711 13.7046 28.9011 8.34092 28.9011 8.34092C28.9011 8.34092 33.2211 7.53638 37.0011 7.53638C40.7811 7.53638 44.8311 8.34092 44.8311 8.34092C44.8311 8.34092 46.1811 15.85 48.0711 20.6773C49.9611 25.5046 49.6911 30.0637 49.4211 32.4773C48.6111 35.4273 46.49 45.2159 46.22 53.7977C45.9093 57.1156 45.7867 59.2134 45.0559 60.3274M29.4411 43.4727C29.4411 43.4727 29.7111 46.4227 31.0611 47.7637C32.9511 49.3727 34.0311 46.9591 34.0311 46.9591M29.4411 43.4727C29.4411 43.4727 29.1711 40.2546 29.1711 39.3159C29.1711 38.3773 28.9011 35.1591 28.9011 35.1591M34.0311 46.9591C34.0311 46.9591 34.5711 51.7864 34.5711 53.7977C34.5711 55.8091 34.5351 57.981 34.8411 60.6364C35.15 63.3182 35.4638 62.8502 35.69 63.8546M34.0311 46.9591V34.8909M35.69 63.8546C35.9808 65.1455 36.0225 65.3128 37.5411 65.4637C39.1235 65.6208 39.3154 65.2766 39.74 63.8546M35.69 63.8546C35.69 63.8546 35.3373 61.4409 35.96 59.5637C36.0589 59.2656 36.8182 59.0273 37.5411 59.0273C37.5411 59.0273 39.74 59.2824 39.74 59.8318C39.74 61.9773 39.74 63.8546 39.74 63.8546M41.9 61.386C42.17 61.9773 44.6 62.2455 45.0559 60.3274M41.9 61.386C41.9 61.386 41.9 60.2753 41.9 59.5637C41.9 58.7591 42.17 57.15 42.17 57.15C42.17 57.15 42.5051 56.912 43.25 56.8818C43.5509 56.8696 44.1648 56.7401 44.6 57.15C45.0592 57.5824 44.9541 57.9476 45.0559 58.4909C45.1881 59.196 45.0559 60.3274 45.0559 60.3274" stroke="#3A3A3A"/>
</svg>
