<svg width="72" height="72" viewBox="0 0 72 72" fill="none" xmlns="http://www.w3.org/2000/svg">
<path d="M35.4342 12.421C35.4342 12.421 35.4342 8.7719 33.7361 9.05261C32.038 9.33331 32.038 11.5789 32.038 14.1052C32.038 14.1052 31.4719 16.9122 31.4719 20.5614C30.9059 25.0526 31.1889 27.2982 31.1889 30.6666M22.6984 41.0526C22.6984 41.0526 22.2158 37.2962 22.6984 35.7192C23.1809 34.1423 23.2407 34.1004 23.8304 33.1929C24.2981 32.4733 24.8241 31.9256 25.2455 31.5087C25.5934 31.1646 25.9016 31.0851 26.3776 30.9639C27.2383 30.7449 28.6374 31.228 28.6374 31.228M22.6984 41.0526C22.6984 41.0526 23.1181 42.9269 23.2644 46.6666M22.6984 41.0526L23.2644 46.6666M47.038 41.614L45.6229 39.0877C45.6229 39.0877 44.1258 38.5968 42.5097 37.957M41.6606 48.0701L40.5285 46.3859L38.8304 44.1403C38.8304 44.1403 37.21 42.1793 35.7172 41.3333C33.7361 40.2105 32.604 39.3684 31.4719 38.2456C30.3398 37.1227 28.8859 35.2843 28.6417 34.3157C28.3587 33.1929 28.0757 31.5087 29.2078 30.3859C29.5054 30.0907 30.2899 30.4164 31.1834 30.9639M40.4309 25.0526C40.0659 22.4404 39.6795 21.5143 39.6795 18.8772C39.6795 14.3859 39.1134 10.7368 39.1134 10.7368C39.1134 10.7368 38.9652 10.2127 39.1134 9.61401M40.4309 25.0526C40.469 25.6007 40.5285 26.4561 40.5285 26.4561C40.5285 26.4561 40.9695 31.461 40.8115 31.228C40.4309 30.6666 40.4309 28.9824 40.4309 28.9824C40.4309 28.9824 40.2455 27.0175 40.4309 25.0526ZM39.1134 9.61401C39.2916 8.89409 39.8584 8.06644 41.0946 7.91318C43.3587 7.63248 43.6417 14.1052 43.6417 14.1052C43.6417 14.1052 44.4331 17.3641 45.0568 21.4035C45.6806 25.4428 47.1353 28.6851 47.604 31.228C48.17 34.2991 47.604 38.807 47.887 42.7368C48.17 46.6666 48.453 50.8771 47.038 56.4912C46.5516 57.9384 47.038 59.2816 45.6229 62.3693C44.5688 64.6692 45.0568 65.457 45.0568 65.457H29.2078C29.2078 65.457 28.6417 63.228 27.5097 61.5438C26.3776 59.8596 26.6606 60.4212 25.2455 57.8947C23.8304 55.3681 23.2644 51.4385 23.2644 46.6666M39.1134 9.61401C38.9891 8.86547 38.986 8.08191 38.2644 7.36839C37.5427 6.65488 36.0002 7.36837 36.0002 7.36837C36.0002 7.36837 35.6284 7.91318 35.4342 8.4912C35.1512 9.33331 35.4342 11.2982 35.4342 11.2982L36.0002 18.8771C36.0002 18.8771 36.0002 20.8421 35.7172 22.5263C35.6876 22.7022 35.4285 24.2966 35.4342 24.4912M35.7172 30.9639V28.1403C35.7172 28.1403 35.4842 26.2139 35.4342 24.4912M35.5611 14.9473C35.5903 15.7894 35.7172 16.0701 35.7172 19.7193C35.7172 23.3684 35.4342 24.4912 35.4342 24.4912M24.3965 34.5964L25.2455 35.9999L26.6606 37.6842V36.5613L26.9853 37.957M31.1889 37.957C31.1889 37.957 32.321 42.1754 32.321 43.5789C32.321 44.2722 31.6049 44.7061 30.9059 44.7017C30.0642 44.6964 29.5528 44.4155 28.9248 43.8596C28.1126 43.1407 27.7927 41.0526 27.7927 41.0526L26.9853 37.957M24.3965 37.957C24.8493 38.1878 25.5286 38.2456 25.8116 38.2456C26.0946 38.2456 26.9853 37.957 26.9853 37.957M42.5097 37.957C41.4833 37.5506 40.1422 36.9213 39.9625 36.8421C37.4153 35.7192 36.5663 34.8771 34.8681 33.7543C34.8681 33.7543 32.8388 31.9784 31.1834 30.9639M42.5097 37.957C42.5097 37.957 43.5226 37.0362 43.9248 36.5613C44.4374 35.9561 45.6229 34.8771 45.6229 34.8771M38.3351 43.5789C38.3351 43.8034 37.2738 44.9824 36.8493 46.6666C36.4248 48.3508 36.0003 51.1578 36.0003 51.1578M29.5405 30.2746C28.8756 30.9487 28.6825 32.9683 29.2078 33.7543C29.7331 34.5403 30.0569 34.8771 30.0569 34.8771C30.0569 34.8771 30.8275 35.7192 31.4719 35.7192C32.1164 35.7193 32.3946 35.2895 32.887 34.8771C33.3795 34.4648 33.7361 33.4736 33.7361 33.4736L31.1834 30.9639M29.8236 43.2982C29.8236 43.2982 30.5564 43.0175 30.9059 43.0175C31.2554 43.0175 31.755 43.0175 31.755 43.0175L31.189 40.2105C31.189 40.2105 30.3257 39.7209 29.8236 39.9298C29.5223 40.0551 29.2078 40.4912 29.2078 40.4912L29.8236 43.2982Z" stroke="#3A3A3A"/>
<path d="M24.1133 4V20.8421" stroke="#3A3A3A"/>
<path d="M22.1025 20.4912H26.5144L24.3085 24.2807L22.1025 20.4912Z" fill="#3A3A3A"/>
</svg>
