<svg width="72" height="72" viewBox="0 0 72 72" fill="none" xmlns="http://www.w3.org/2000/svg">
<path d="M40.392 60.9712C40.392 60.9712 41.2155 62.6154 42.7939 62.3414C43.4116 62.2341 44.0872 62.0673 44.0872 61.2452M40.392 60.9712C40.5682 55.5209 40.0668 50.2102 40.3233 37.4039M40.392 60.9712C40.392 60.9712 40.1305 63.6384 39.0234 65.3558M27.9704 47.5433C27.9704 47.5433 28.1177 48.9135 26.941 48.9135C25.7643 48.9135 25.9327 49.1875 25.2939 48.6394C24.6552 48.0914 23.9214 44.2548 23.9214 44.2548C23.9214 44.2548 23.0292 40.4183 22.7547 39.0481C22.4802 37.6779 22.4802 34.9375 22.7547 33.8414C23.0292 32.7452 23.3037 25.3462 24.6763 22.6058C26.0488 19.8654 28.7939 10.5481 28.7939 10.5481L45.2645 12.4664C45.2645 12.4664 50.2057 31.9231 49.3822 36.0337C48.5586 40.1442 47.1861 40.6923 47.1861 42.8846C47.1861 45.0769 45.8822 56.8606 45.2645 59.3269C45.0482 59.9028 44.7841 60.9712 44.0872 61.2452M27.9704 47.5433C27.9704 47.5433 28.7939 57.9567 29.0684 59.3269C29.2122 60.0446 29.8941 61.8584 30.2351 62.6154M27.9704 47.5433C27.9704 47.5433 28.2449 46.1731 27.9704 43.1587C27.6959 40.1442 27.49 38.7741 27.49 38.7741M34.5586 62.3414C34.1661 52.4685 34.5586 60.6971 34.0096 50.8317C33.4606 40.9664 33.1861 37.4039 33.1861 37.4039M34.5586 62.3414C34.624 63.9856 35.1763 64.8077 35.4508 65.3558M34.5586 62.3414C34.1726 62.7171 34.1452 62.747 33.8037 63.1635M44.0872 61.2452C44.0872 61.2452 44.5165 58.0681 44.0872 57.6827C43.658 57.2973 44.0872 57.6827 43.4116 57.4087C42.4694 57.0265 41.7645 57.4087 41.2155 57.6827C40.941 57.8197 40.941 59.875 40.941 59.875V61.6318M35.4508 65.3558C35.9998 66.4519 35.9998 66.4519 37.3037 66.4519C38.1621 66.2961 38.5837 66.0379 39.0234 65.3558M35.4508 65.3558V61.2452C35.4508 61.2452 36.0258 60.9712 37.0978 60.9712C37.6339 60.9712 38.0523 61.0518 38.5521 61.2452C39.8518 61.7482 39.0234 65.3558 39.0234 65.3558M30.2351 62.6154C30.4704 63.1378 30.5096 63.1378 30.7841 63.4375C31.8822 64.2596 33.1833 63.9202 33.8037 63.1635M30.2351 62.6154C30.2351 62.6154 30.1567 62.0673 29.9606 59.3269C29.9018 58.5048 31.3331 58.5048 31.3331 58.5048C31.3331 58.5048 32.9116 58.5048 33.2547 59.0529C33.5978 59.601 33.8037 61.5192 33.8037 63.1635" stroke="#3A3A3A"/>
</svg>
