<svg width="72" height="72" viewBox="0 0 72 72" fill="none" xmlns="http://www.w3.org/2000/svg">
<path d="M29.7164 30.1026C29.7164 30.1026 29.4693 30.1519 29.2135 30.359M29.7164 30.1026C29.4952 30.4502 29.1741 31.231 29.2135 31.641C29.2562 32.085 29.3592 32.1427 29.7164 32.4102C30.7435 33.1795 31.0002 33.1795 31.7705 33.4359C32.5408 33.6923 32.7187 33.812 33.311 33.4359C33.801 33.1248 34.0813 32.4102 34.0813 32.4102M29.7164 30.1026L34.0813 32.4102M38.1894 13.4359L37.6759 11.3846C37.6759 11.3846 36.9056 9.84614 35.3651 9.84614C34.0813 10.359 34.0813 11.1282 34.0813 12.9231L34.3381 16.7692L34.5948 21.8974C34.5948 21.8974 34.4938 25.2307 34.5948 26.2564C34.7758 28.0939 34.9683 31.641 34.9683 31.641M38.1894 13.4359C38.1894 13.4359 38.7029 11.8974 40.2435 11.8974C41.784 11.8974 41.784 12.6667 42.0408 13.4359C42.2229 13.9814 42.4279 13.7621 43.0678 16.7692C43.3302 18.0027 43.6467 19.2637 44.0948 21.1282M38.1894 13.4359C38.1894 13.4359 38.1894 16.5128 39.2164 21.8974C39.341 22.7684 39.3559 22.8551 39.4732 23.6923M44.0948 21.1282C44.5573 24.015 45.1897 28.2807 45.6354 30.359M44.0948 21.1282L45.6354 30.359M35.1083 32.6667L34.3381 29.3333C34.3381 29.3333 33.9863 27.688 32.7975 27.282C32.2282 27.0876 30.7435 27.0256 29.7164 27.7949L29.2135 28.5641V30.359M35.1083 32.6667C35.1083 32.6667 37.9076 33.2997 39.2164 34.4615C40.2097 35.3432 40.9064 36.2931 42.0408 37.282M35.1083 32.6667L34.0813 32.4102M30.7435 35.7436C29.9932 35.3045 29.6535 34.6551 29.4596 34.4615C28.9462 33.1795 28.9462 33.9487 28.6894 32.1538C28.5453 31.1465 28.8864 30.6238 29.2135 30.359M30.7435 35.7436C30.7435 35.7436 30.8896 36.8106 31.5137 38.3077M30.7435 35.7436C30.8322 35.7955 31.1743 36.103 31.257 36.1535C32.3267 36.8063 32.9633 37.3556 35.1083 38.3077C35.295 38.4195 35.4654 38.5531 35.6218 38.7028M31.5137 38.3077C32.3091 40.2155 32.0273 39.3333 32.284 40.1025C32.5408 41.1282 31.9149 41.6456 31.0002 41.3846C29.203 40.8718 28.4327 39.0769 27.6624 37.7949L26.1218 34.9743L25.0256 32.9231L24.9526 32.6667M31.5137 38.3077C31.5137 38.3077 31.2008 38.3077 31.0002 38.3077C31.0002 38.3077 30.6842 38.2727 30.4867 38.3077C30.1537 38.3667 29.7164 38.7028 29.7164 38.7028C29.7164 38.7028 29.8592 39.2476 29.9732 39.5897C30.1436 40.1014 30.7435 41.3003 30.7435 41.3003M23.811 8.05127C23.811 8.05127 23.811 21.8974 23.811 19.8461M35.6218 52.6667C35.6218 52.6667 35.2135 50.7275 35.3651 49.0769C35.4923 47.6916 35.5323 46.4848 36.1354 45.2308C36.74 43.9735 37.4191 41.8974 37.4191 41.8974C36.9803 41.0209 36.5414 39.5826 35.6218 38.7028M47.4327 40.8718C47.4279 40.7036 47.0825 40.1026 46.9191 39.3333C46.6468 38.0513 46.9191 36.7692 46.6624 34.4615C46.5768 33.6923 46.1793 32.8954 45.6354 30.359M47.4327 40.8718C47.6522 48.6512 47.1541 50.6696 46.1488 53.1795C45.1218 55.7436 45.3786 57.282 45.3786 59.3333C45.3786 61.3846 45.6353 64.4615 45.6353 64.4615L32.0272 65.4872C32.0272 65.4872 32.0272 63.6923 32.0272 61.3846C32.0272 59.0769 31.7705 59.0769 31.257 58.0513C30.7435 57.0256 27.9602 53.9696 27.4056 51.3846C26.6354 47.7949 26.1218 40.6154 26.1218 40.6154C26.1218 40.6154 26.094 40.5241 26.0468 40.359C25.7145 39.196 24.9526 33.1795 24.9526 31.641C24.9526 30.1026 24.9526 30.1026 24.9526 30.1026C24.9526 30.1026 25.2917 29.0277 26.0468 28.8205C26.5303 28.6879 27.2103 28.3476 27.6624 28.5641C28.351 28.8938 28.969 30.6154 28.969 30.6154M47.4327 40.8718L45.3786 39.8461C45.3786 39.8461 43.5454 38.5938 42.0408 37.282M39.4732 23.6923C39.8392 26.3053 40.2435 29.5049 40.2435 31.641C40.2435 31.641 39.6431 30.4094 39.5829 29.8461C39.4732 28.8205 39.4309 27.2568 39.4732 26.2564C39.5327 24.8485 39.4732 23.6923 39.4732 23.6923ZM32.3378 40.359C32.3378 40.359 33.2773 42.0048 33.8245 42.1538C34.3178 42.2882 34.6644 42.4071 35.1083 42.1538C35.5711 41.8898 35.8399 41.5652 36.0007 41.1282M35.6218 38.7028C35.6218 38.7028 36.2729 39.8544 36.1354 40.6154C36.1016 40.8022 36.058 40.9723 36.0007 41.1282M34.0813 42.2236L33.0543 40.1025C33.0543 40.1025 32.9542 39.6166 33.0543 39.3333C33.2211 38.8612 33.8245 38.7028 33.8245 38.7028H34.7632L35.6218 40.359L36.0007 41.1282M42.0408 37.282L43.0678 35.7436L44.0948 34.9743" stroke="#3A3A3A"/>
<path d="M21.7359 20.0351L25.7383 20.0485L23.7255 23.5033L21.7359 20.0351Z" fill="#3A3A3A"/>
</svg>
