<svg width="72" height="72" viewBox="0 0 72 72" fill="none" xmlns="http://www.w3.org/2000/svg">
<path d="M22.579 39.1734C21.7025 38.8822 16.1521 38.5909 14.6913 38.5909C13.2306 38.5909 10.5841 39.4507 10.292 42.0715C10.292 43.2503 13.5055 44.11 13.5055 44.11C13.5055 44.11 19.9498 45.566 22.579 47.6045C25.2082 49.643 27.8374 53.4426 29.2981 54.3162C30.7588 55.1898 39.8149 58.3931 43.6127 58.9756C46.8262 57.8107 49.4554 60.4316 49.4554 60.4316C49.4554 60.4316 50.6239 56.6459 54.1295 52.569C57.6352 48.492 61.4329 47.036 61.4329 47.036C61.4329 47.036 56.4666 39.7558 54.1295 35.0964C50.1857 27.2338 46.2419 24.6129 45.6576 24.0305C45.0734 23.4481 40.9834 17.3327 40.9834 17.3327C40.9834 17.3327 36.0171 11.7998 35.4329 10.9261C34.8487 10.0525 33.9722 8.88764 32.5115 8.59644C32.0837 8.51115 31.8062 8.82558 31.6351 9.32753M22.579 39.1734C23.4554 39.4646 20.8261 38.0085 20.2418 32.4756C19.6576 26.9426 24.6239 27.2338 24.6239 27.2338M22.579 39.1734C22.579 39.1734 27.8374 43.8327 29.298 43.2503C30.7587 42.6679 29.2981 40.0331 29.2981 39.1734C27.2359 38.5909 23.4553 34.8052 23.4553 34.8052M36.8936 21.4096C36.8936 21.4096 35.1407 17.9151 34.5565 17.0415C33.9722 16.1679 31.9272 13.8383 31.6351 13.2558C31.4286 12.844 31.222 10.5393 31.6351 9.32753M36.8936 21.4096C36.8936 21.4096 36.0171 21.1184 33.6801 20.8272C31.343 20.536 30.7588 22.8657 30.7588 22.8657M36.8936 21.4096C39.4633 23.5559 41.0098 24.436 43.9048 25.4865M24.6239 27.2338C24.6239 27.2338 23.4553 23.7393 26.0845 22.5745C28.7138 21.4096 30.7588 22.8657 30.7588 22.8657M24.6239 27.2338C24.6239 27.2338 30.7587 30.4371 32.5115 31.8931C35.725 32.1844 37.1857 33.058 37.1857 33.058M30.7588 22.8657C30.7588 22.8657 37.1857 27.2338 38.3542 27.525C39.5227 27.8162 44.1969 30.1459 44.1969 30.1459M31.6351 9.32753C31.6351 9.32753 32.6276 11.2488 33.6801 12.077C34.0029 12.3311 34.1464 12.6265 34.5565 12.6594C35.1197 12.7047 35.7077 11.7858 35.7077 11.7858" stroke="#3A3A3A"/>
<path d="M10.5845 42.0714C10.5845 42.0714 11.7807 40.9066 12.9216 40.9066C14.3822 40.9066 16.135 41.7802 16.7193 42.0714C17.8879 42.6538 17.8878 42.6539 17.8878 42.6539C17.8878 42.6539 17.144 45.5294 17.3036 44.9835" stroke="#3A3A3A"/>
</svg>
