<svg width="72" height="72" viewBox="0 0 72 72" fill="none" xmlns="http://www.w3.org/2000/svg">
<path d="M27.136 17.2466C27.6645 4.35186 32.9502 9.87818 32.9502 9.87818M27.136 17.2466C25.0217 16.1939 23.7002 17.5097 23.436 19.615C23.1717 21.7203 22.6431 23.5624 22.6431 26.1939C22.6431 28.8255 22.1145 34.0887 22.1145 34.0887L21.3217 35.6676C21.3217 35.6676 20.5288 35.9308 20.5288 38.2992C20.5288 40.6676 20.5288 40.9308 20.7931 43.2992C21.0574 45.6676 20.7931 54.3518 21.8502 56.4571C22.9074 58.5624 23.7002 58.8253 23.9645 60.1411C24.2288 61.4569 23.9645 63.299 23.9645 63.299L39.8217 65.4043C39.8217 65.4043 38.9407 61.4569 39.8217 60.1411M27.136 17.2466C27.136 17.2466 27.136 32.5097 26.8717 33.2992C26.6074 34.0887 25.0217 34.615 25.0217 34.615M32.9502 9.87818C32.9502 9.87818 32.9502 7.50974 34.8002 6.72027C36.6502 5.93079 37.7074 7.77288 37.9717 8.29921C38.236 8.82555 38.236 12.7729 38.236 12.7729M32.9502 9.87818V31.7203M39.8217 60.1411C41.936 56.9834 46.4288 53.0361 46.9574 51.1939C47.486 49.3518 47.2217 49.3518 48.5431 46.7203C48.8536 45.1741 51.08 43.083 53.0782 41.1939M39.8217 60.1411C39.8217 60.1411 38.5002 60.1411 37.1788 59.8779C35.8574 59.6148 34.0074 59.8779 34.0074 59.8779M38.236 12.7729C38.236 12.7729 39.2931 10.4045 40.8788 10.6676C42.4645 10.9308 42.7288 11.4571 42.9931 12.2466C43.2574 13.0361 43.5217 31.9834 44.0502 33.0361C44.5788 34.0887 45.636 38.8255 45.636 41.4571M38.236 12.7729C38.236 12.7729 37.7074 30.1413 38.236 31.1939C39.0288 32.2466 40.086 33.0361 40.086 33.0361M32.9502 31.7203C32.9502 31.7203 31.8931 31.9834 31.6288 32.5097M32.9502 31.7203C34.2717 31.7203 34.2717 31.9834 34.2717 31.9834M45.636 41.4571C53.3002 31.9834 55.9431 37.2466 56.2074 37.7729M45.636 41.4571C45.636 41.4571 45.636 43.8255 40.3502 44.8782C38.236 45.4922 35.5931 48.2992 35.5931 48.2992M56.2074 37.7729C55.7713 38.6413 54.481 39.8678 53.0782 41.1939M56.2074 37.7729H55.1502L54.0931 39.1579L53.0782 41.1939M31.6288 44.615C31.6288 44.615 31.8931 43.2992 34.0074 41.1939C36.1217 39.0887 37.1788 38.2992 37.1788 38.2992" stroke="#3A3A3A"/>
</svg>
