<svg width="72" height="72" viewBox="0 0 72 72" fill="none" xmlns="http://www.w3.org/2000/svg">
<path d="M41.2648 26.7216L41.8137 24.026V21.5999V18.3651L42.3236 11.626C42.3236 11.626 41.7942 6.77381 43.9119 6.50425C46.0261 6.23512 46.0295 9.73903 46.0295 9.73903C46.0295 9.73903 46.5589 14.0521 46.2942 17.826C46.5589 21.8695 46.7378 26.1444 47.0883 26.9912C47.8955 30.226 47.1014 34.8086 47.8955 35.6173C48.1602 37.3708 48.1602 39.1216 48.1602 39.1216C48.1602 39.1216 49.7354 50.1738 48.1602 52.3303C47.8955 53.6782 47.1014 53.9477 46.572 56.3738C46.0426 58.7999 46.3073 61.7651 46.3073 61.7651C46.3073 61.7651 41.8073 64.4608 37.8367 64.4608C33.8661 64.4608 29.3661 63.6521 29.3661 63.6521C29.3661 63.6521 29.6308 60.9564 29.1014 58.2608C28.572 55.5651 27.2354 53.6782 26.706 52.3303C26.21 51.4464 25.1178 45.5912 25.5795 39.1216C25.2804 33.6292 25.5795 30.4955 25.5795 30.4955C25.5795 30.4955 25.8294 28.339 25.1178 25.3738C25.1178 21.3303 24.5884 18.6512 24.5884 17.826C24.5884 16.2086 24.3237 13.2434 26.1766 12.4347C28.559 11.8956 28.2942 18.3651 28.2942 18.3651L29.3661 22.6782L29.8825 28.6086M41.2648 26.7216C41.2648 26.7216 40.206 23.7564 39.1472 22.6782C38.6177 22.139 38.353 22.139 36.2354 22.139C34.9249 22.6782 35.4544 24.5651 35.4544 24.5651M41.2648 26.7216C41.4639 27.7197 40.0265 28.8782 40.0265 28.8782M35.4544 24.5651L35.706 26.9912M35.4544 24.5651C35.4544 24.5651 35.2724 23.6099 34.6472 23.2173C34.1733 22.9197 33.853 22.6782 32.7942 22.6782C32.1323 22.6782 31.2775 22.9062 30.9413 23.4869C30.7492 23.8186 30.6659 24.175 30.636 24.5651M35.706 26.9912C34.6341 26.3363 33.5883 25.6434 32.7942 26.4521C32.3341 26.9206 32.2339 27.818 32.3313 28.6086M35.706 26.9912C37.0426 27.8079 38.8825 29.4106 41.0132 30.4955C41.3725 30.6785 41.7351 30.9819 42.0661 31.3042M47.8955 36.6955C47.8955 36.6955 45.9484 35.0022 44.1766 33.4608M36.6532 46.3999C36.6532 46.3999 37.0295 44.7825 37.5589 43.4347C38.0883 42.0868 39.1472 40.739 39.1472 40.739L40.4707 39.3912M41.7942 41.5477C41.1222 40.5701 40.6016 39.6262 40.4707 39.3912M39.6766 38.3129C39.7993 38.4944 39.585 38.176 39.6766 38.3129ZM39.6766 38.3129C39.6766 38.3129 39.4942 39.0433 39.1472 39.1216C38.6425 39.2355 38.0281 39.3424 37.5589 39.1216C37.4043 39.0489 37.4468 39.0959 37.2943 38.8521M39.6766 38.3129C40.3651 39.3427 40.2676 39.0267 40.4707 39.3912M39.6766 38.3129C38.3907 36.1123 38.8515 36.9657 38.344 35.8869M39.5989 23.2173C39.5989 23.2173 39.9966 26.9912 39.9966 28.0695C39.9966 29.3327 40.206 30.0712 40.206 30.0712M33.5884 39.9303C32.2648 37.5042 31.4707 32.6521 31.4707 32.6521C31.4707 32.6521 31.2898 31.688 31.1007 30.4955M33.5884 39.9303C33.9539 40.6003 34.2942 40.5593 34.6472 40.739C35.0001 40.9187 35.839 40.7294 36.2354 40.1999M33.5884 39.9303C33.5884 39.9303 32.7161 41.0106 32.0001 41.5477C31.584 41.8599 29.8825 42.3564 29.8825 42.3564M36.2354 40.1999C37.0426 39.1216 36.5001 36.426 36.5001 36.426L36.2354 33.7303M36.2354 40.1999L35.9707 37.2347C35.9707 37.2347 35.8073 36.6955 35.4544 36.6955C35.1014 36.6955 34.5413 36.6955 34.1177 36.6955C33.6942 36.6955 33.5884 37.303 33.5884 37.7738C33.5884 38.5825 33.7611 40.1999 33.7611 40.1999M36.2354 33.7303C35.5658 33.2958 34.4488 32.647 34.1177 32.1129C33.4494 31.0347 33.5883 31.5738 32.7942 29.9564C32.577 29.7002 32.402 29.1826 32.3313 28.6086M36.2354 33.7303C36.9177 34.1731 37.1557 34.4005 37.8236 34.8086C38.0667 35.3036 38.2299 35.6441 38.344 35.8869M36.6532 37.7738C36.6532 37.7738 37.0573 38.4734 37.2943 38.8521M44.1766 33.4608C43.9612 33.2734 43.5833 32.8227 43.3825 32.6521C43.2348 32.6306 42.7103 31.9316 42.0661 31.3042M44.1766 33.4608L45.2354 31.3042L46.2942 29.9564M42.0661 31.3042L42.853 29.4173M30.636 24.5651C30.5884 25.1866 30.6766 25.8935 30.6766 26.7216C30.6766 27.609 30.8936 29.1893 31.1007 30.4955M30.636 24.5651L30.1472 27.5303C30.1472 27.5303 29.8265 28.7567 30.1472 29.4173C30.4265 29.9928 31.1007 30.4955 31.1007 30.4955M37.2943 38.8521C37.2943 38.8521 37.2943 38.0434 37.2943 37.2347C37.2943 36.8657 37.2354 36.3224 37.5589 36.1564C37.8327 36.0159 38.344 35.8869 38.344 35.8869M33.7611 26.0925L35.9707 27.5303C35.9707 27.5303 36.7028 28.1664 36.7648 28.6086C36.8111 28.9382 36.6412 29.3865 36.5001 29.6869C36.2771 30.1617 36.1804 30.2866 35.706 30.4955C35.3265 30.6627 34.9119 30.4955 34.9119 30.4955L33.5884 29.6869L32.3313 28.6086" stroke="#3A3A3A"/>
</svg>
