<svg width="72" height="72" viewBox="0 0 72 72" fill="none" xmlns="http://www.w3.org/2000/svg">
<path d="M20.5245 33.1473C23.1795 35.3447 23.7383 40.1631 26.952 41.4387C29.523 43.671 28.5589 45.9032 31.7727 48.4544C35.6292 50.333 38.6054 52.5653 42.3782 54.7975C45.592 56.0731 46.3185 56.392 48.2468 57.6676C50.175 58.9432 56.5187 65.356 56.5187 65.356L66.1601 51.3245C66.1601 51.3245 62.9464 48.1355 61.018 45.2654C59.0898 42.3954 58.447 38.5686 56.5187 34.4229C55.317 29.3205 55.3171 28.0449 54.6743 25.008C51.7819 22.2699 49.2107 21.6321 44.7114 19.3998C39.8906 17.7704 35.3915 16.5297 34.106 16.2108C32.8205 15.8919 27.3571 21.3132 27.3571 21.3132L25.978 25.7163M20.5245 33.1473C19.6444 30.2423 21.9806 29.8286 23.8219 30.0313M20.5245 33.1473C20.5245 33.1473 21.4931 34.1219 22.2155 34.7069C22.758 35.1463 23.1238 35.7193 23.8219 35.6636C24.52 35.6079 24.6097 35.5247 25.4292 35.0258C26.2487 34.5269 26.3934 34.388 26.7147 33.7502C26.8585 33.465 26.2542 32.891 25.978 32.4746C25.2754 31.4152 23.8219 30.0313 23.8219 30.0313M25.1077 30.2423C25.1077 30.2423 25.7501 25.7778 26.3929 24.5022C27.0357 23.2266 31.2972 20.0376 33.1418 18.4431C34.9866 17.4864 37.9623 19.3998 41.4976 20.6754C44.7114 22.2699 50.8178 24.1484 50.8178 26.0966C50.8178 28.0449 51.7819 30.2423 51.7819 30.2423M25.1077 30.2423L28 32.4746M25.1077 30.2423C25.1077 30.2423 24.5576 30.1124 23.8219 30.0313M28 32.4746C28 32.4746 31.4513 36.9741 32.7369 37.9308C34.6651 38.5686 35.713 39.1715 37.3199 38.5337C38.9269 37.8959 41.4141 35.3796 42.3782 34.4229M28 32.4746L28.8033 31.8368M42.3782 34.4229C43.3423 33.4662 42.9385 33.2957 42.3782 32.4746C40.8551 30.2423 42.9603 29.4141 41.4976 28.01C41.1148 27.6426 40.2192 27.1769 39.248 26.7031M42.3782 34.4229L44.7114 31.8368M34.7487 24.5022C35.3993 24.9325 34.7487 23.2266 36.0342 25.008C36.589 25.4543 37.9826 26.0856 39.248 26.7031M34.7487 24.5022C34.7487 24.8724 33.8615 25.269 32.7369 26.0966M34.7487 24.5022L35.3915 25.008V27.0534C35.3915 27.0534 35.3359 28.591 34.7487 29.2856M34.7487 24.5022V21.3132M39.248 37.3049C39.248 37.3049 39.8908 34.6418 39.8908 33.1473C39.8908 32.4211 39.8791 31.7951 40.0533 31.199M28.8033 31.8368L29.6067 31.199C29.6067 31.199 30.0117 30.2423 30.8922 28.01C30.8635 27.8029 31.1712 27.4346 31.5762 27.0534M28.8033 31.8368C28.8033 31.8368 29.2316 32.3317 29.6067 32.4746C30.7452 32.9083 31.5597 31.1665 31.7727 30.2423C31.9858 29.3177 32.1615 28.01 32.1615 28.01L32.7369 26.0966M32.7369 26.0966C32.3883 26.3532 31.9425 26.7086 31.5762 27.0534M28.8033 32.4746C28.8033 32.4746 31.113 33.7184 31.7727 33.4313C32.7145 33.0214 33.1418 32.2196 33.1418 31.199C33.1418 30.91 33.1418 30.5853 33.1418 30.2423M33.1418 25.8087C33.1418 25.8087 33.1418 28.3146 33.1418 30.2423M33.1418 30.2423C33.1418 30.2423 34.2784 29.842 34.7487 29.2856M34.7487 29.2856L36.0342 25.7163C36.0342 25.7163 36.6309 26.8221 37.3199 27.0534C37.7954 27.2129 38.6053 27.0534 38.6053 27.0534L39.248 26.7031M39.248 26.7031L39.8908 28.6478V30.2423L40.0533 31.199M40.0533 31.199C40.1479 30.8751 40.2974 30.5599 40.5335 30.2423C40.968 29.658 41.849 30.2423 41.849 30.2423L43.7473 27.0534M31.5762 27.0534L29.6067 26.7031" stroke="#3A3A3A"/>
<path d="M18.2383 19.7542L22.5769 22.2397L18.2383 24.7253V19.7542Z" fill="#3A3A3A"/>
<path d="M18.2384 22.3053C16.2031 22.6242 10.0768 21.9864 8.91998 21.3486C6.02784 19.7541 6.34899 16.2462 8.27728 14.9706C10.2056 13.6951 18.2384 14.0139 18.2384 14.0139" stroke="#3A3A3A"/>
</svg>
