<svg width="72" height="72" viewBox="0 0 72 72" fill="none" xmlns="http://www.w3.org/2000/svg">
<path d="M24.9623 25.1849C21.6828 26.8013 22.364 28.3861 26.9108 32.9439C29.509 36.5001 29.1843 35.8535 30.8081 38.1166C32.432 39.7331 34.4123 41.2253 35.3866 43.8116C36.3609 46.398 45.1297 53.5104 46.104 54.157C47.0783 54.8036 48.7021 54.8036 49.3516 55.4502C50.0011 56.0968 50.7425 58.9058 51.9498 62.5627L65.2653 55.4502C65.2653 55.4502 63.3167 51.5707 62.3424 48.0144C61.3681 44.4582 61.3681 40.5787 61.3681 40.5787L59.4195 28.6169C59.4195 28.6169 58.7382 24.0908 57.4391 22.2752C55.4905 21.6286 50.619 21.6286 50.619 21.6286L44.4484 20.982C44.4484 20.982 41.2324 20.6588 37.953 20.3355C35.0443 20.0487 32.4319 20.087 29.1842 19.888L23.6632 19.3656M24.9623 25.1849C24.9623 25.1849 24.6375 25.5081 21.065 24.5383C18.1241 23.7399 17.1639 22.7223 16.9163 21.3054M24.9623 25.1849C25.3022 25.2609 25.6468 25.3253 25.9365 25.3812M16.8428 20.3354C16.518 18.719 16.8428 19.0423 16.8428 19.0423C16.8428 19.0423 21.2272 19.2165 23.6632 19.3656M16.8428 20.3354C16.8428 20.3354 18.3602 20.982 19.766 20.982C21.1718 20.982 22.364 21.3053 23.0131 20.3354C23.6622 19.3655 23.6632 19.3656 23.6632 19.3656M16.8428 20.3354C16.8428 20.6783 16.8631 21.0011 16.9163 21.3054M30.1903 26.4781C31.9308 27.5452 33.4281 29.6519 33.731 30.5566C33.731 30.5566 37.9847 35.406 40.9076 36.3759M30.1903 26.4781C31.325 26.9996 34.7053 27.1246 36.6856 26.4463C37.4665 26.5891 38.5711 27.535 40.195 27.9703C42.1436 28.4927 43.008 28.2681 44.7731 28.4178C47.2695 28.6295 48.3774 28.4178 49.3516 27.9703C50.5305 27.4288 46.9185 28.7984 45.4227 29.711M30.1903 26.4781C28.9819 25.7371 28.1111 25.8003 25.9365 25.3812M40.9076 36.3759C43.8305 37.3458 45.4227 35.5302 45.4227 35.5302C45.964 34.8837 46.5618 34.2964 47.3713 33.5905C48.9968 32.1731 50.9755 31.311 51.9498 30.5566M40.9076 36.3759C40.9076 36.3759 40.5212 35.6502 40.195 34.7908C40.195 32.9439 39.9016 31.6507 39.9016 31.6507C39.9016 31.6507 39.5769 30.5566 40.5512 30.3576C41.0929 30.4425 41.8502 30.3576 41.8502 30.3576M40.9076 36.3759C40.9076 36.3759 43.2101 37.3293 44.7731 37.47C45.531 37.5382 46.7218 37.47 46.7218 37.47M41.8502 30.3576C41.8502 30.3576 41.5344 31.5376 41.8502 32.1731C42.2875 33.053 42.5313 32.6562 43.4741 32.9439C44.0924 33.1326 44.7731 33.5905 44.7731 33.5905M41.8502 30.3576C41.8502 30.3576 42.7202 30.2047 43.4741 30.0343M23.2791 28.6169L26.9108 32.1731C26.9108 32.1731 28.4509 31.3646 28.8594 30.3576C29.1444 29.6552 29.4142 29.339 29.1842 28.6169C29.1107 28.3861 28.2099 27.1246 27.2356 26.4781C26.7576 26.1609 25.9365 25.3812 25.9365 25.3812M45.4227 29.711C45.4227 29.711 45.1142 30.7759 45.4227 31.3274C45.7176 31.8546 46.1939 31.8764 46.7218 32.1731C47.3433 32.5225 48.3774 32.9439 48.3774 32.9439M45.4227 29.711C44.6577 29.711 44.1455 29.8825 43.4741 30.0343M16.7004 19.3656L13.2706 19.0423C13.2706 19.0423 12.6209 19.7708 12.6211 20.3355M12.6211 20.3355C12.6214 21.6286 12.6208 21.5131 13.2706 22.5985C13.8692 23.5984 14.4981 24.0177 15.544 24.5383C16.4794 25.0039 18.1421 25.1849 18.1421 25.1849L23.6632 25.137M12.6211 20.3355C12.6211 20.3355 11.6462 20.0122 10.9972 20.0122C10.6406 20.0122 10.6903 21.7692 10.9973 22.5985C11.278 23.3571 11.4316 23.6111 11.9715 24.215C12.5677 24.8818 14.022 25.625 14.8944 25.8315C17.4926 26.4463 17.8173 26.4781 17.8173 26.4781L23.0131 26.8635M13.2706 19.3656L13.9198 20.3355C13.9198 20.3355 14.2689 20.787 14.5694 20.982C15.1111 21.3337 16.1932 21.3054 16.1932 21.3054H16.9163M33.731 26.9057L36.6856 27.4479C37.1081 27.7712 38.2778 28.4178 38.2778 28.4178C38.2778 28.4178 40.3347 29.2799 41.2007 29.711C42.0668 30.142 43.4741 30.0343 43.4741 30.0343M32.1072 28.1207L34.0558 28.4178C34.0558 28.4178 34.7711 29.3272 35.3866 29.711C36.0565 30.1286 36.5312 30.1901 37.3035 30.3576C38.1743 30.5464 40.1227 30.5566 40.1227 30.5566" stroke="#3A3A3A"/>
</svg>
