<svg width="72" height="72" viewBox="0 0 72 72" fill="none" xmlns="http://www.w3.org/2000/svg">
<path d="M34.9113 10.2208C34.9113 10.2208 35.7363 7.69897 38.2113 9.1C39.3113 10.501 43.4363 19.1875 45.6363 23.951C46.7942 26.4582 49.2826 30.819 51.05 32.9176C52.6405 34.8063 52.8882 34.717 53.8 36.8405C54.075 40.7634 54.9863 41.3239 54.7113 48.8895C54.4363 56.4551 55.2613 61.779 55.2613 61.779L45.9113 67.103C45.9113 67.103 44.175 63.18 40.1363 60.6582C38.675 58.1363 37.575 57.8561 36.75 55.3342C36.75 55.3342 35.2375 53.0926 34.825 50.5707C34.4125 48.0488 34.55 48.6093 34.1232 46.928C33.6965 45.2468 33.5417 42.9019 32.625 39.9228C32.4621 39.3936 31.7018 37.6039 31.25 35.7197C30.745 33.6137 29.4995 31.0003 29.8009 30.1596C30.2904 30.123 30.7 28.4343 33.45 29.2749M34.9113 10.2208C34.9113 10.2208 33.2663 7.30357 32.1613 7.97916C30.7863 8.81979 31.525 11.3417 31.525 11.3417C31.525 11.3417 32.625 14.1437 33.45 15.825C34.275 17.5062 36.2863 21.1489 36.2863 21.1489C36.2863 21.1489 36.8363 22.55 38.2113 25.6322C39.5863 28.7145 40.875 30.676 40.875 30.676L42.6113 32.9176M34.9113 10.2208C34.9113 10.2208 35.4613 13.8635 36.2863 15.825C37.1113 17.7864 43.625 32.077 43.35 32.9176M43.35 32.9176C42.6113 35.1593 43.9863 38.5218 43.9863 38.5218M43.35 32.9176H42.6113M43.35 32.9176L43.1654 35.1593L43.9863 38.5218M43.9863 38.5218C43.9863 38.5218 43.7238 38.802 42.6113 39.9228C41.4988 41.0437 40.4363 41.3239 40.4363 41.3239M43.9863 38.5218L46.65 35.7197M33.45 29.2749C33.45 29.2749 35.375 30.9562 36.2 34.3187M33.45 29.2749L34.275 27.8739C34.275 27.8739 35.1863 25.6322 36.0113 25.6322C36.8363 25.6322 38.6787 26.6463 38.6787 26.6463M42.6113 32.9176C42.6113 33.326 41.3084 34.2136 40.875 34.5989M36.2 34.3187C36.3736 34.3187 37.025 33.7583 37.025 33.7583C37.7802 32.6374 37.6311 31.6217 37.7802 31.3955M36.2 34.3187C36.25 34.5223 36.382 34.9889 36.4238 35.1593M40.4363 41.3239C40.4363 41.3239 38.2113 38.802 37.3 36.8405C37.3 36.8405 36.8363 35.9999 36.4238 35.1593M40.4363 41.3239L41.7863 43.0051M40.4363 41.3239L40.1363 39.0822C40.1363 39.0822 39.4696 37.6544 39.5 36.8405C39.5303 36.0266 40.4363 35.1593 40.4363 35.1593C40.5584 35.0706 40.7136 34.7424 40.875 34.5989M43.9863 41.8843C43.9863 41.8843 43.8053 42.3489 44.8113 41.3239C45.3613 40.7634 45.9113 39.0822 45.9113 39.0822M21.7113 14.1437C21.7113 14.1437 20.8863 12.7427 19.2363 11.9021C17.5863 11.0614 16.4863 11.6219 15.9363 11.9021C15.3863 12.1823 14.5613 12.4625 13.4613 13.5833C12.3613 14.7041 12.275 17.226 12.825 18.3468C13.375 19.4677 14.5611 20.5885 15.9362 21.1489C17.3111 21.4291 19.975 21.4291 21.075 20.3083C22.175 19.1875 23.0862 18.0666 22.8113 14.9844C22.5363 11.9021 22.5362 11.6219 21.7113 9.66041C20.8863 7.69896 17.3113 6.57812 17.3113 6.57812M40.875 34.5989L38.6787 33.478C38.3108 33.1978 37.9718 32.2171 37.9718 32.2171C37.9718 32.2171 37.5462 30.3268 37.3 29.5918M36.4238 35.1593H37.025L37.7802 34.8791M37.7802 34.8791C37.8876 34.5508 37.9718 34.3187 37.9718 33.953M37.7802 34.8791C38.0552 35.4357 38.9537 36.2801 39.5 36.5603M32.625 29.0839C32.625 29.0839 34.0147 31.8823 34.275 32.9176C34.5353 33.953 33.725 34.3187 33.3267 34.5989C32.9285 34.8791 32.35 35.1593 31.525 34.8791C31.021 34.8791 29.7643 30.676 29.7643 30.676" stroke="#3A3A3A"/>
<path d="M14.0107 6.57829L17.7232 4.39429V8.76229L14.0107 6.57829Z" fill="#3A3A3A"/>
</svg>
