<svg width="72" height="72" viewBox="0 0 72 72" fill="none" xmlns="http://www.w3.org/2000/svg">
<path d="M12.5233 30.483C15.3585 32.8525 15.9552 38.0482 19.387 39.4237C22.1325 41.8308 21.103 44.2379 24.5348 46.9889C28.6531 49.0146 31.8313 51.4217 35.8601 53.8288C39.292 55.2043 40.0678 55.5482 42.1269 56.9236C44.186 58.2991 50.9602 65.2142 50.9602 65.2142L61.2559 50.0838C61.2559 50.0838 57.8241 46.6451 55.7649 43.5502C53.7057 40.4553 53.0194 36.3289 50.9602 31.8585C49.6769 26.3566 49.677 24.9811 48.9906 21.7063C45.9019 18.7538 43.1563 18.066 38.3517 15.6589C33.2037 13.9019 28.3992 12.564 27.0265 12.2202C25.6537 11.8763 19.8196 17.7221 19.8196 17.7221L18.347 22.4701M12.5233 30.483C11.5835 27.3506 14.0783 26.9044 16.0445 27.1231M12.5233 30.483C12.5233 30.483 13.5577 31.534 14.329 32.1648C14.9084 32.6386 15.2991 33.2565 16.0445 33.1964C16.79 33.1363 16.8858 33.0466 17.7609 32.5087C18.636 31.9707 18.7905 31.8209 19.1337 31.1332C19.2871 30.8256 18.6419 30.2067 18.347 29.7577C17.5966 28.6153 16.0445 27.1231 16.0445 27.1231M17.4176 27.3506C17.4176 27.3506 18.1036 22.5363 18.79 21.1609C19.4764 19.7854 24.0271 16.3466 25.9969 14.6273C27.9668 13.5956 31.1445 15.6589 34.9198 17.0344C38.3517 18.7537 44.8724 20.7793 44.8724 22.8802C44.8724 24.9811 45.9019 27.3506 45.9019 27.3506M17.4176 27.3506L20.5061 29.7577M17.4176 27.3506C17.4176 27.3506 16.8301 27.2104 16.0445 27.1231M20.5061 29.7577C20.5061 29.7577 24.1917 34.6095 25.5645 35.6411C27.6236 36.3289 28.7426 36.979 30.4585 36.2912C32.1745 35.6035 34.8305 32.8902 35.8601 31.8585M20.5061 29.7577L21.364 29.0699M35.8601 31.8585C36.8897 30.8269 36.4584 30.6431 35.8601 29.7577C34.2336 27.3506 36.4817 26.4575 34.9198 24.9434C34.511 24.5472 33.5546 24.0451 32.5175 23.5341M35.8601 31.8585L38.3517 29.0699M27.7129 21.1609C28.4075 21.6249 27.7129 19.7854 29.0856 21.7063C29.678 22.1875 31.1662 22.8683 32.5175 23.5341M27.7129 21.1609C27.7129 21.56 26.7654 21.9878 25.5645 22.8802M27.7129 21.1609L28.3992 21.7063V23.9118C28.3992 23.9118 28.3399 25.5699 27.7129 26.3189M27.7129 21.1609V17.7221M32.5175 34.9662C32.5175 34.9662 33.2039 32.0945 33.2039 30.483C33.2039 29.7 33.1914 29.025 33.3774 28.3822M21.364 29.0699L22.2218 28.3822C22.2218 28.3822 22.6544 27.3506 23.5946 24.9434C23.5639 24.7201 23.8925 24.323 24.325 23.9118M21.364 29.0699C21.364 29.0699 21.8213 29.6036 22.2218 29.7577C23.4377 30.2253 24.3074 28.3471 24.5348 27.3506C24.7624 26.3536 24.9501 24.9434 24.9501 24.9434L25.5645 22.8802M25.5645 22.8802C25.1922 23.1568 24.7162 23.5401 24.325 23.9118M21.364 29.7577C21.364 29.7577 23.8304 31.0989 24.5348 30.7893C25.5406 30.3473 25.9969 29.4826 25.9969 28.3822C25.9969 28.0705 25.9969 27.7204 25.9969 27.3506M25.9969 22.5697C25.9969 22.5697 25.9969 25.2719 25.9969 27.3506M25.9969 27.3506C25.9969 27.3506 27.2106 26.9189 27.7129 26.3189M27.7129 26.3189L29.0856 22.4701C29.0856 22.4701 29.7228 23.6625 30.4585 23.9118C30.9663 24.0839 31.8311 23.9118 31.8311 23.9118L32.5175 23.5341M32.5175 23.5341L33.2039 25.6312V27.3506L33.3774 28.3822M33.3774 28.3822C33.4784 28.0328 33.6381 27.693 33.8902 27.3506C34.3542 26.7204 35.2949 27.3506 35.2949 27.3506L37.3221 23.9118M24.325 23.9118L22.2218 23.5341" stroke="#3A3A3A"/>
</svg>
