<svg width="72" height="72" viewBox="0 0 72 72" fill="none" xmlns="http://www.w3.org/2000/svg">
<path d="M39.9552 42.7633C39.9552 42.7633 38.6754 41.625 37.5236 40.0714C36.7558 39.0357 36.7235 38.5178 35.476 36.9642C34.5646 35.8292 32.4046 34.116 32.4046 34.116C29.7426 33.5176 28.7929 34.3018 28.5653 35.1517M39.9552 42.7633C39.9552 42.7633 41.107 43.4106 42.3867 43.6695C43.6664 43.9285 45.97 43.1785 45.97 43.1785M39.9552 42.7633C39.9552 42.7633 42.3867 43.9285 43.4105 42.7633C45.7141 41.366 46.482 39.5267 46.482 39.5267M41.4353 14.1785C40.6674 13.4017 38.0355 8.99995 37.5236 9.51781C37.0117 10.0357 35.9556 12.6249 36.7235 14.1785C37.4914 15.7321 41.107 22.7232 41.107 22.7232C41.107 22.7232 41.8748 25.5446 42.3867 27.6428C42.8987 29.7411 44.1783 30.75 44.1783 32.5625C44.1783 33.3288 44.3086 33.7664 44.1783 34.116M41.4353 14.1785C42.2032 14.9553 44.9463 20.1071 46.482 22.1785C47.7617 25.0535 48.7856 27.125 49.8094 28.9375C50.8332 30.75 51.3451 31.7588 53.3926 34.866C55.1844 38.2321 56.2082 56.3571 57.2319 58.4285C56.4641 60.4999 47.2498 66.4552 47.2498 66.4552C46.5973 65.0228 46.9938 63.8659 45.97 62.3123C45.7771 62.0197 44.0037 61.3962 41.4353 58.9463C39.4591 57.0613 36.2439 50.1696 35.9879 49.1339C35.7319 48.0981 34.9641 47.3214 33.6844 45.4821C32.1487 40.3303 30.3569 39.5267 29.0772 36.9642C28.5369 36.3083 28.3989 35.7728 28.5653 35.1517M41.4353 14.1785C41.4353 14.1785 40.2743 14.2487 39.5713 13.9196C38.7775 13.5481 37.7033 12.4551 37.5236 11.5892C37.3785 10.8895 37.5236 9.77674 37.5236 9.77674M42.8986 35.6696H39.9552L37.7796 34.116M42.8986 35.6696C42.7181 35.9026 41.9745 36.7422 41.4353 37.3469M42.8986 35.6696C43.4895 34.9069 44.0006 34.5933 44.1783 34.116M40.851 43.0916L40.3391 40.5892C40.3391 39.6569 40.477 38.7459 40.851 38C40.851 38 41.1047 37.7176 41.4353 37.3469M44.097 31.7857C44.097 31.7857 39.1148 28.9375 36.7235 28.9375C35.9879 28.9375 34.8332 30.6021 34.1963 32.0446C33.9676 32.5625 33.3944 34.866 33.3944 34.866M38.0355 40.7275C38.0355 40.7275 38.8948 39.869 38.8674 39.0357C38.845 38.3575 38.1676 37.0765 37.7796 36.4464M37.7796 36.4464C37.3536 35.8582 36.7235 35.6696 36.7235 35.6696L37.7796 34.375V34.116M37.7796 36.4464C37.6908 36.3022 37.8597 36.557 37.7796 36.4464ZM37.7796 36.4464L38.5474 36.1875M37.7796 34.116L37.5236 31.7857M41.4353 37.3469C41.1552 37.392 40.851 37.3785 40.3391 36.9642C39.8271 36.55 39.1233 35.4196 38.8674 34.8928M38.5474 36.1875L38.8674 35.6696M38.5474 36.1875C38.5474 36.1875 38.9841 37.7737 39.3153 38.2589C39.679 38.7916 40.3391 39.0357 40.3391 39.0357M28.7158 36.4464L30.8688 38.5178C30.8688 38.5178 31.5137 38.4229 31.8926 38.2589C32.601 37.9522 33.3944 36.9642 33.3944 36.9642C33.3944 36.9642 33.1155 36.4826 32.9164 36.1875C32.397 35.4174 31.3807 34.375 31.3807 34.375C31.3807 34.375 30.3755 34.197 29.5891 34.375C29.217 34.4591 28.5653 35.1517 28.5653 35.1517M44.1783 34.116C44.1783 34.116 44.5478 36.6514 44.3543 38.2589C44.2681 38.975 44.0024 40.0714 44.0024 40.0714" stroke="#3A3A3A"/>
<path d="M18.0713 11.8213C18.0713 11.8213 23.4463 7.41955 25.7499 10.7856C28.0534 14.1517 22.4225 16.4821 22.4225 16.4821C22.4225 16.4821 28.8213 17.5178 27.0296 22.9553C25.238 28.3928 18.0713 23.4731 18.0713 23.4731" stroke="#3A3A3A"/>
<path d="M15 23.4732L18.4554 21.4551V25.4914L15 23.4732Z" fill="#3A3A3A"/>
</svg>
