<svg width="72" height="72" viewBox="0 0 72 72" fill="none" xmlns="http://www.w3.org/2000/svg">
<path d="M31.6488 29.906C31.6488 29.906 31.3886 29.957 31.1194 30.171M31.6488 29.906C31.4159 30.2652 31.0779 31.0721 31.1194 31.4958C31.1644 31.9545 31.2727 32.0141 31.6488 32.2906C32.7299 33.0855 33.0002 33.0855 33.811 33.3504C34.6218 33.6154 34.8091 33.7391 35.4326 33.3504C35.9483 33.029 36.2434 32.2906 36.2434 32.2906M31.6488 29.906L36.2434 32.2906M38.4056 13.2137L37.5948 10.5641C37.5948 10.5641 36.784 8.97439 35.1623 8.97439C33.811 9.50429 33.811 9.76926 33.811 11.624L34.6784 16.1282L35.7029 21.4274C35.7029 21.4274 36.4073 24.8718 36.5137 25.9317C36.7042 27.8304 37.1771 31.4958 37.1771 31.4958M38.4056 13.2137C38.4056 13.2137 39.273 11.0941 40.8947 11.0941C42.5163 11.0941 42.5162 11.8889 42.7866 12.6838C42.9782 13.2475 43.1941 13.0208 43.8676 16.1282C44.1439 17.4028 45.2312 18.7058 45.7029 20.6325M38.4056 13.2137C38.4056 13.2137 38.7325 15.8633 40.5677 21.4274C40.6989 22.3274 40.7146 22.417 40.838 23.2821M45.7029 20.6325C46.1897 23.6156 47.9365 28.0235 48.4056 30.171M45.7029 20.6325L48.4056 30.171M37.3245 32.5556L36.5137 29.1111C36.5137 29.1111 36.1434 27.411 34.892 26.9915C34.2928 26.7906 32.7299 26.7265 31.6488 27.5214L31.1194 28.3163V30.171M37.3245 32.5556C37.3245 32.5556 40.2711 33.2097 41.6488 34.4103C42.6944 35.3214 43.4278 36.3029 44.6218 37.3248M37.3245 32.5556L36.2434 32.2906M32.7299 35.7351C31.9401 35.2814 31.5825 34.6103 31.3785 34.4103C30.838 33.0855 30.838 33.8804 30.5677 32.0257C30.4161 30.9848 30.7751 30.4446 31.1194 30.171M32.7299 35.7351C32.7299 35.7351 32.8837 36.8376 33.5407 38.3846M32.7299 35.7351C32.8233 35.7887 33.1834 36.1065 33.2704 36.1586C34.3965 36.8332 35.0666 37.4009 37.3245 38.3846C37.521 38.5002 37.7003 38.6382 37.865 38.7929M33.5407 38.3846C34.378 40.356 34.0812 39.4445 34.3515 40.2393C34.6218 41.2992 33.9629 41.8338 33.0002 41.5641C31.1083 41.0342 30.2975 39.1795 29.4867 37.8547L27.865 34.9402L26.7111 32.8205L26.6342 32.5556M33.5407 38.3846C33.5407 38.3846 33.2113 38.3846 33.0002 38.3846C33.0002 38.3846 32.6675 38.3485 32.4596 38.3846C32.1091 38.4456 31.6488 38.7929 31.6488 38.7929C31.6488 38.7929 31.7991 39.3559 31.9191 39.7094C32.0985 40.2382 32.7299 41.477 32.7299 41.477M28.4056 7.38464L15.9731 13.7436M37.865 53.2222C37.865 53.2222 37.4352 51.2185 37.5948 49.5128C37.7287 48.0814 37.7708 46.8343 38.4056 45.5385C39.042 44.2393 39.7569 42.094 39.7569 42.094C39.295 41.1883 38.833 39.7021 37.865 38.7929M50.2975 41.0342C50.2925 40.8604 49.9289 40.2393 49.7569 39.4445C49.4703 38.1197 49.7569 36.7949 49.4867 34.4103C49.3966 33.6154 48.9781 32.792 48.4056 30.171M50.2975 41.0342C50.5285 49.0729 50.0042 51.1587 48.9461 53.7522C47.865 56.4017 48.1353 57.9915 48.1353 60.1111C48.1353 62.2308 48.4055 65.4103 48.4055 65.4103L34.0812 66.4701C34.0812 66.4701 34.0812 64.6154 34.0812 62.2308C34.0812 59.8462 33.811 59.8462 33.2704 58.7863C32.7299 57.7265 29.8002 54.5686 29.2163 51.8975C28.4056 48.1881 27.865 40.7693 27.865 40.7693C27.865 40.7693 27.8357 40.675 27.7861 40.5043C27.4362 39.3026 26.6342 33.0855 26.6342 31.4958C26.6342 29.906 26.6342 29.906 26.6342 29.906C26.6342 29.906 26.9911 28.7953 27.7861 28.5812C28.2949 28.4442 29.0108 28.0926 29.4867 28.3163C30.2115 28.6569 30.8621 30.4359 30.8621 30.4359M50.2975 41.0342L48.1353 39.9744C48.1353 39.9744 46.2056 38.6803 44.6218 37.3248M40.838 23.2821C41.2233 25.9822 42.7299 29.2884 42.7299 31.4958C42.7299 31.4958 42.0346 30.2264 42.0346 29.641C42.0346 28.5812 42.1894 28.2208 41.6488 26.6311C41.1083 25.0413 40.838 23.2821 40.838 23.2821ZM34.4082 40.5043C34.4082 40.5043 35.3971 42.205 35.9731 42.359C36.4924 42.4978 36.8572 42.6208 37.3245 42.359C37.8116 42.0861 38.0946 41.7507 38.2638 41.2992M37.865 38.7929C37.865 38.7929 38.5503 39.9829 38.4056 40.7693C38.37 40.9623 38.3242 41.1381 38.2638 41.2992M36.2434 42.4311L35.1623 40.2393C35.1623 40.2393 35.0569 39.7372 35.1623 39.4445C35.338 38.9566 35.9731 38.7929 35.9731 38.7929H36.9612L37.865 40.5043L38.2638 41.2992M44.6218 37.3248L45.7029 35.7351L46.784 34.9402" stroke="#3A3A3A"/>
<path d="M15.4322 11.8889L17.5388 15.4658H13.3257L15.4322 11.8889Z" fill="#3A3A3A"/>
</svg>
