<svg width="72" height="72" viewBox="0 0 72 72" fill="none" xmlns="http://www.w3.org/2000/svg">
<path d="M31.1501 46.2378V61.4174C31.1501 61.4174 31.1501 63.7087 32.3101 64.5679C32.6001 65.4271 34.6301 66.5728 35.7901 64.8543C36.3701 64.5679 37.8201 62.5953 37.8201 60.8446C37.8201 59.1262 37.5301 51.1067 38.1101 47.3834C38.7793 43.0873 40.1401 35.0679 40.1401 35.0679L41.5901 47.097L42.4601 59.4126C42.4601 59.4126 43.0401 62.563 45.3601 62.563C47.6801 62.563 47.9701 58.2669 47.9701 58.2669C47.9701 58.2669 47.9701 41.0825 47.9701 38.2184C47.9701 35.3543 49.7101 33.6359 49.7101 31.0582C49.7101 28.4805 47.9701 23.0388 47.3901 19.8883C46.8101 16.7378 46.2301 7.57275 46.2301 7.57275C46.2301 7.57275 39.5601 9.86402 36.3701 9.86402C33.1801 9.86402 28.5401 7.57275 28.5401 7.57275C28.5401 7.57275 25.9301 12.4417 25.0601 14.4465C24.1901 16.4514 23.6101 20.4611 23.6101 21.6067C23.6101 22.7524 23.9001 23.6116 23.0301 25.6164C22.1601 27.6213 21.8701 28.7669 21.8701 28.7669C21.8701 28.7669 21.5801 30.4854 21.5801 31.9174C21.5801 33.3495 22.4501 34.7815 22.4501 34.7815C22.4501 34.7815 22.4501 39.9368 22.7401 41.0825C23.0301 42.2281 23.6101 44.2329 24.7701 44.8058C25.9301 45.3786 26.5101 44.2329 26.5101 44.2329M31.1501 46.2378C31.1501 46.2378 30.2801 48.8155 28.5401 47.9562C26.8001 47.097 26.5101 44.2329 26.5101 44.2329M31.1501 46.2378C31.1501 46.2378 31.4401 42.5145 31.2951 40.2232C31.1501 37.932 31.4401 34.2087 31.4401 34.2087M26.5101 44.2329V35.6407" stroke="#3A3A3A"/>
<path d="M43.6583 61.9903C43.6583 61.9903 43.3303 59.1262 43.6589 57.6942C43.7553 57.2738 44.4898 57.5237 44.9099 57.5237C45.5383 57.5237 45.6645 57.5236 46.5198 57.5237C46.8096 57.5237 46.8098 59.1176 46.8098 59.699C46.8098 60.5711 46.8098 61.7038 46.8098 61.7038" stroke="#3A3A3A"/>
<path d="M32.3101 64.5681V61.1312C32.3101 61.1312 32.9329 60.4488 33.4701 60.272C34.0073 60.0951 34.9201 60.272 34.9201 60.272L36.0801 61.1312V64.5681" stroke="#3A3A3A"/>
</svg>
