<svg width="72" height="72" viewBox="0 0 72 72" fill="none" xmlns="http://www.w3.org/2000/svg">
<path d="M40.2501 26.4152C39.7917 25.1214 37.5001 19.7796 37.2705 18.1242C36.5205 17.1412 35.7501 16.0931 35.2501 14.6186C34.7501 13.144 34.5205 11.4886 34.5205 10.7514C34.5205 10.0141 34.2705 8.04798 35.7705 7.55645C37.2705 7.06493 38.0205 9.52255 38.0205 9.52255C38.0205 9.52255 44.7705 23.2852 45.5205 24.7598C46.2705 26.2344 48.3955 30.4124 48.6455 32.3785C48.8955 34.3446 50.2705 43.4378 49.7705 45.6497C48.6455 48.7796 48 51.483 48 51.483C48 51.483 47.7705 52.5311 47.5205 54.4971C47.2705 56.4631 49.2705 62.6072 49.2705 62.6072C49.2705 62.6072 46.0205 64.3275 42.2705 64.5733C38.5205 64.819 34.7705 64.0818 34.7705 64.0818C34.7705 64.0818 34.7705 63.0338 34.5205 61.805C34.2705 60.5762 34.5205 60.0847 34.0205 58.8559C33.5205 57.627 33.7705 57.6269 33.0205 56.644C32.2705 55.6609 31.2705 53.6948 30.7501 51.9745C30.2297 50.2542 30.2501 47.305 30.2501 47.305C30.2501 47.305 30 42.5705 30 41.6525C30 39.9147 30.2501 38.9491 30.5001 38.2118M40.2501 26.4152C39.2501 25.4321 37.2705 23.531 36.3955 23.531C35.9042 23.531 34.4835 23.7294 33.7501 23.9576M40.2501 26.4152C40.2501 26.4152 41.0364 28.0619 41.2501 28.692C41.5001 29.4293 40.7501 29.6101 40.2501 31.0847C39.73 31.9607 38.6705 32.2122 37.7501 32.6406M30.5001 38.2118C29.7501 36.983 28.7501 35.7542 27.2501 33.0508C27.2501 33.0508 27.1653 32.767 27.1193 32.3785M30.5001 38.2118C30.5001 38.2118 31.3621 39.4406 32.5001 41.6525C33.6381 43.8643 34.0205 45.3389 34.0205 46.5677C34.0205 47.7966 33.9863 48.6748 34.0205 50.0734C34.0512 51.3288 34.2678 52.0489 34.7705 53.2033C35.0787 53.9111 35.7501 54.9237 35.7501 54.9237M26.2501 17.8135C26.2501 17.8135 25.5 18.305 25.25 19.0423C25 21.2542 26.75 23.466 26.75 24.2033L27.75 27.3982L28.5 30.1615M26.2501 17.8135C26.2501 17.8135 24.5001 13.6355 26.0001 12.4067C27.5001 11.1779 28.2297 14.1278 29.2501 15.1101L32.5001 21.4999L33.7501 23.9576M26.2501 17.8135L27.2501 19.7796L29.0001 23.2203C29.0001 23.2203 29.7501 25.3717 30.2501 26.9067C30.7501 28.4418 31.1898 30.1615 31.1898 30.1615M31.3621 31.3866C31.3621 31.3866 31.2517 30.9229 30.5001 30.5931C30.5001 30.5931 30.1 30.2962 29.5359 30.1615M31.3621 31.3866C31.3621 31.3866 34.5001 34.2796 35.2501 36.2457C35.6025 37.1695 37.7512 38.8716 38.5 39.4406M31.3621 31.3866C31.3621 31.3866 31.1947 30.9383 31.1898 30.1615M45.5205 33.2965C45.5205 33.2965 43.2501 38.2118 40.5205 39.7514C39.5928 40.0119 39.3448 40.0825 38.5 39.4406M41.2501 40.3658C41.2501 40.3658 42.5001 39.9321 43.2501 39.4406C44.2501 38.7852 44.7501 38.2118 44.7501 38.2118M39.1017 32.3785C39.1017 32.3785 37.4717 31.345 36.7501 30.5931M36.7501 30.5931C36.5633 30.3985 36.3872 30.1064 36.2549 29.8559M36.7501 30.5931L37.2501 31.0847L37.7501 32.6406M36.7501 30.5931L36.2549 29.8559M37.7501 32.6406C37.3794 32.8131 37.0313 33.0143 36.7501 33.2965C36.1066 33.9423 34.7501 34.794 34.7501 34.794C34.7297 33.0754 34.7501 32.6406 34.7705 31.0847C34.7705 31.0847 35.7889 30.3474 36.2964 28.8728C36.8039 27.3982 36.6359 25.6779 36.6359 25.6779L36.7501 27.8898L35.8427 29.8559C35.8427 29.8559 36.1123 29.586 36.2549 29.8559M31.1898 30.1615C31.1872 29.7556 31.229 29.2601 31.3621 28.692C31.6644 27.4023 33.5001 24.2033 33.5001 24.2033C33.616 24.1464 33.5289 24.0264 33.7501 23.9576M28.5 30.1615C28.2359 30.2324 27.7425 30.367 27.5205 30.5931C27.0674 31.0548 27.0537 31.8235 27.1193 32.3785M28.5 30.1615C28.8686 30.0625 29.2269 30.0876 29.5359 30.1615M29.5359 30.1615C29.5359 30.1615 30.3396 30.9166 31 31.822C31.2574 32.1748 31.875 33.0508 32 33.2965C32.125 33.5423 31.541 34.1719 31.1898 34.5254C30.624 35.0947 29.9565 35.4556 29.5359 35.2626C29.0001 35.0169 28.6762 34.5944 28.25 34.0338C27.7408 33.3643 27.1193 32.3785 27.1193 32.3785M39.5 36.2457C39.5 36.2457 39.224 36.8148 38.5 37.7203C38.113 38.2042 38.5 39.4406 38.5 39.4406" stroke="#3A3A3A"/>
</svg>
