<svg width="72" height="72" viewBox="0 0 72 72" fill="none" xmlns="http://www.w3.org/2000/svg">
<path d="M31.7578 22.4829C32.6976 24.3449 38.8795 30.8622 38.8795 32.4139C38.8795 33.9656 38.253 37.3794 35.8301 38.6208C34.4939 40.4829 31.4446 39.2415 30.8181 38.9312C30.1916 38.6208 26.7458 35.8277 25.806 34.8967C24.8663 33.9656 21.7337 31.4829 20.4807 31.1725C19.2277 30.8622 13.8191 30.5518 13.5058 33.3449C13.4556 33.7931 13.4954 34.3686 13.8191 34.5863C14.1655 34.8194 15.2408 35.5948 15.6986 35.8277C16.7664 36.371 17.3777 37.0401 17.8914 37.3794C18.8311 38.0001 21.1072 41.1036 22.047 42.0346C22.9868 42.9656 24.8663 43.5863 26.4325 44.8277C27.9988 46.0691 29.8783 48.8622 29.8783 48.8622C29.8783 48.8622 33.6374 53.5174 36.4566 55.0691C39.2759 56.6208 42.0952 56.3105 43.9747 57.5518C45.8542 58.7932 45.541 59.4139 46.4807 60.9656C47.4205 62.5174 48.047 64.0691 48.047 64.0691L62.1434 54.4484C62.1434 54.4484 53.6856 37.0691 53.059 35.207C52.4325 33.3449 51.1796 27.7587 50.2398 25.8967C49.2999 24.0346 43.035 20.0001 41.782 19.0691C40.529 18.138 35.8302 12.5518 33.9506 11.9311C33.9506 11.9311 27.4077 11.0546 23.2166 11.3105C20.6288 11.4684 16.6383 12.1984 16.6383 12.1984M31.7578 22.4829C31.7578 22.4829 32.1407 24.5347 32.6977 25.8967C33.0742 26.8175 33.9506 28.0691 33.9506 28.0691L35.8301 30.5518M31.7578 22.4829C31.2819 21.5398 30.0024 20.9151 28.8554 20.5283M13.1561 13.7932C12.5295 14.4139 10.9995 14.4139 11.3128 15.9656C11.3128 15.9656 11.7678 16.7111 12.253 17.207C12.7382 17.7029 14.759 18.0876 15.4687 17.8722C16.6383 17.5174 16.9516 17.5174 16.9516 17.5174M49.2168 29.0001C49.2168 29.0001 48.3602 27.7587 48.047 26.8277C47.7337 25.8967 45.2278 24.9656 45.2278 24.9656C45.2278 24.9656 34.5772 15.6553 32.6977 14.4139C30.8181 13.1725 18.288 12.8622 17.6615 12.5518C17.0349 12.2415 14.529 11.6208 13.9025 11.6208C13.276 11.6208 12.9627 13.7932 13.276 14.4139C13.5892 15.0346 13.9025 15.6553 15.4687 16.5863C16.3582 17.115 16.2068 17.1888 16.9516 17.5174M16.9516 17.5174C17.5183 17.7674 18.9996 18.3143 19.541 18.4484C20.794 18.7587 26.7458 20.0001 26.7458 20.0001C26.7458 20.0001 27.7377 20.1513 28.8554 20.5283M34.8072 39.4178L34.4939 35.5174C34.4939 35.5174 34.1807 34.6869 34.1807 33.3449C34.1807 32.5218 34.6007 32.1149 34.8072 31.7932M35.8301 30.5518C36.7699 29.9311 37.2851 29.6208 37.2851 29.6208M35.8301 30.5518C35.1827 30.9794 35.2644 31.0809 34.8072 31.7932M13.1561 17.6513C13.1561 17.6513 12.6617 18.9013 13.1561 19.3794C13.7525 19.9562 14.2066 20.0887 15.0722 20.3105C16.0583 20.5631 17.6615 20.0001 17.6615 20.0001L20.7108 19.3794C20.7108 19.3794 21.4834 19.704 22.047 20.0001C23.5754 20.8032 24.7053 21.0282 26.4325 20.9311C27.3904 20.8773 28.8554 20.5283 28.8554 20.5283M17.265 20.3105C17.265 20.3105 17.9366 21.6824 18.518 22.1725C19.143 22.6994 20.223 22.9272 21.0241 23.1036C22.5012 23.4288 25.806 21.8622 25.806 21.8622C25.806 21.8622 26.5063 22.4459 26.9759 22.7932C27.6827 23.3161 28.0099 23.7851 28.8554 24.0346C29.6761 24.2768 31.0482 24.0346 31.0482 24.0346C31.0482 24.0346 30.8969 26.1161 31.0482 26.8277C31.3208 28.1105 31.5354 28.5517 32.3012 29.6208C33.1 30.7361 34.8072 31.7932 34.8072 31.7932" stroke="#3A3A3A"/>
<path d="M13.8193 34.5862L15.6989 35.8276L17.6977 37.069C17.6977 37.069 18.2049 37.069 19.1446 36.138C20.0844 35.2069 20.0844 34.5862 20.0844 34.5862C20.0844 34.5862 19.264 33.6062 17.8916 32.7242C16.5193 31.8421 15.3856 31.4828 15.3856 31.4828" stroke="#3A3A3A"/>
<path d="M13.1929 12.8621L16.0121 14.1034C16.0121 14.1034 17.4289 14.4622 18.2049 14.1034C18.832 13.8135 19.4579 12.8621 19.4579 12.8621" stroke="#3A3A3A"/>
</svg>
