<svg width="72" height="72" viewBox="0 0 72 72" fill="none" xmlns="http://www.w3.org/2000/svg">
<path d="M36.5778 50.7727C34.6808 47.2727 34.9969 38.1104 34.6808 35.8831C34.3646 33.6558 32.7837 30.7922 32.1513 30.1558C32.1513 30.1558 32.4327 30.5869 32.1513 29.4545M16.0264 21.1818C17.4439 21.7054 19.0591 21.8182 19.0591 21.8182C19.0591 21.8182 21.6179 21.4957 22.8532 20.8636C24.1862 20.1817 24.0661 20.0429 24.7503 19.9741C27.9121 19.6559 29.4928 18.6364 29.4928 18.6364M16.0264 21.1818C13.368 22.5195 15.2649 23.7273 16.0264 24.1104C16.1279 24.1614 16.2407 24.2097 16.3643 24.2537M16.0264 21.1818C15.3338 20.8333 14.792 20.1984 14.6514 19.5909M29.4928 18.6364C29.4968 18.7321 29.7381 17.0454 29.4878 18.3182C29.5455 18.6488 29.7227 19.7931 29.809 20.2273C29.9635 21.0047 30.1403 22.0606 30.2543 22.5195C30.3476 22.8951 30.551 23.714 30.7915 24.6818M29.4928 18.6364C29.4738 18.175 29.5028 17.7467 29.6175 17.3636M29.4928 20.8636C29.4928 20.8636 29.493 21.1818 26.015 21.8182C22.5371 22.4545 23.8018 22.5195 23.8018 22.5195C23.1694 22.2013 21.9048 23.4741 20.0077 24.1104C18.4264 24.6409 17.1675 24.5396 16.3643 24.2537M45.934 33.2727C45.934 33.2727 45.934 33.0195 43.2175 33.0195C42.8425 33.1705 42.4968 33.0869 41.9528 32M41.9528 32C41.499 31.0932 40.6215 28.598 40.232 27.5454M41.9528 32C41.9528 32 44.5812 31.0454 45.3016 31.0454C45.4488 31.0454 45.76 30.926 46.1622 30.7359M37.0812 19.2727C37.0812 19.2727 36.2616 15.2013 32.7837 15.5195C30.7582 15.7048 29.9097 16.3871 29.6175 17.3636M37.0812 19.2727C37.0812 19.2727 38.3524 21.8126 39.0761 24.1104M37.0812 19.2727C37.0812 19.2727 38.9562 21.016 39.6106 21.8182C41.4806 24.1104 43.8872 24.8613 44.6693 25.4151M39.0761 24.1104C39.4675 25.3531 39.8419 26.4911 40.232 27.5454M39.0761 24.1104L40.232 25.6364L41.4806 25.9545M40.232 27.5454C40.232 27.5454 40.8373 26.4104 41.4806 25.9545M41.4806 25.9545C42.0708 25.5363 42.7051 25.816 43.4046 25.6364C45.1503 25.1879 47.8312 25.3182 47.8312 25.3182L49.0959 25M16.3643 24.2537C16.3643 24.2537 14.9234 24.8615 14.9487 25.6364C14.9699 26.289 15.0736 26.1839 15.581 26.5909C16.5728 27.3864 17.6192 27.3864 18.7428 27.3864C19.3752 27.3864 18.7106 27.6515 19.0591 27.3864M30.7915 24.6818C30.2532 24.5391 28.8604 24.6818 28.8604 24.6818C28.8604 24.6818 27.9119 24.4436 27.5957 24.1104C27.5957 24.1104 26.8731 24.4213 26.0506 24.6818M30.7915 24.6818C30.9411 25.2841 31.105 25.9441 31.2657 26.5909C31.4036 27.1459 32.0294 28.9639 32.1513 29.4545M19.0591 27.3864C19.4548 27.2 20.4058 27.1534 20.769 26.9091C21.9046 26.145 22.2207 25 22.2207 25C22.2207 25 23.7719 25.137 24.7503 25C24.8919 24.9802 25.0417 24.9518 25.1955 24.9173M19.0591 27.3864C19.0591 28.5 21.5883 28.5 21.5883 28.5C21.5883 28.5 22.8848 27.7285 23.4854 27.3864L25.1955 24.9173M25.1955 24.9173C25.4755 24.8544 25.7689 24.771 26.0506 24.6818M14.6514 19.5909C14.5353 19.0891 14.6928 18.606 15.2649 18.3182C16.2783 17.8082 19.2021 16.5227 20.3237 16.032M14.6514 19.5909C14.6514 19.5909 16.4131 19.5902 17.4781 19.2727C18.5371 18.957 19.2978 18.8514 20.0077 18C20.4482 17.4717 20.769 16.4091 20.769 16.4091L20.3237 16.032M20.3237 16.032C20.6017 15.9104 20.769 15.8377 20.769 15.8377C20.769 15.8377 23.6146 13.6104 25.1955 13.2922C26.7763 12.974 30.5705 12.3377 30.5705 12.3377C30.5705 12.3377 34.0484 11.3831 36.5778 11.7013C39.1072 12.0195 41.9528 13.9286 41.9528 13.9286C41.9528 13.9286 47.3278 18 48.5925 18.6364C49.8572 19.2727 52.3866 21.2467 55.2322 24.1104C58.0778 26.974 53.8162 50.4091 53.5 52C53.1838 53.591 54.2729 61.4285 54.2729 61.4285L40.232 65.5L39.905 63.9091L38.3457 60.3182C37.1241 59.0454 33.9938 54.75 33.3252 52C32.7837 49.7727 32.7837 51 32.7837 48C32.7837 45 32.7837 43.4545 32.7837 43.4545C32.7837 43.4545 31.917 36.5508 32.3383 34.8636C32.6708 33.5318 33.3252 32 33.3252 32M33.9193 15.5789C33.9193 15.5789 34.4716 16.5273 34.8678 18C35.0667 18.7392 35.5002 21.1818 35.5002 21.5C35.5002 21.8182 34.6413 22.2759 33.9193 22.5195C32.7837 22.9027 31.706 23.0909 31.2657 22.5195C31.2657 22.5195 30.7793 21.3359 30.5705 20.5454C30.4087 19.9331 29.809 18.3182 29.809 18.3182L29.6175 17.3636M50.6766 28.1818C50.6766 28.1818 47.7292 29.9952 46.1622 30.7359M46.1622 30.7359C46.1622 30.7359 44.1446 30.3874 43.4046 29.4545C43.06 29.0203 42.7722 28.1818 42.7722 28.1818M26.0506 24.6818C27.5957 25.9545 28.1455 25.8454 29.4878 26.5909M29.4878 26.5909L30.5705 28.1818M29.4878 26.5909C28.8604 26.2424 30.2096 27.8636 30.5705 28.1818M30.5705 28.1818L32.1513 29.4545" stroke="#3A3A3A"/>
</svg>
