<svg width="72" height="72" viewBox="0 0 72 72" fill="none" xmlns="http://www.w3.org/2000/svg">
<path d="M29.6057 8.06217C31.3835 7.76216 33.9258 8.40008 35.111 8.40008C37.2755 8.40008 39.5554 10.1769 43.111 12.3001C45.0546 13.4607 48.148 22.5233 49.6295 24.6233C50.5184 27.0233 49.3332 30.0001 48.7406 33.3001C48.148 36.6001 47.8517 36.6233 47.5554 39.6233C47.2591 42.6233 46.9628 44.7001 46.3702 47.4001C45.7776 50.1001 45.4813 53.7233 45.4813 53.7233L47.5554 59.1233C47.5554 59.1233 44.2962 61.5233 39.8517 63.0233C35.4073 64.5233 31.8517 65.4233 31.8517 65.4233C31.8517 65.4233 30.9628 59.1233 29.7776 57.9233C28.8489 56.9156 27.9717 56.0596 26.9916 54.6001C25.2059 51.941 24.148 47.4001 24.148 46.8001C24.148 46.2001 22.2467 41.9749 21.6831 38.7233C21.3199 36.6283 21.7187 34.8078 21.683 33.3001L21.6831 28.2001M29.6057 8.06217C27.9999 9.00007 26.9294 9.60007 26.8147 10.5001C27.4073 12.5769 29.6057 12.9001 29.6057 12.9001M29.6057 8.06217C28.2843 8.66276 27.4073 9.00007 27.4073 9.00007C27.4073 9.00007 27.4073 9.30007 27.9999 9.30007C28.5784 9.30007 29.8254 9.40305 30.3702 9.60007C30.7631 9.74215 31.2591 9.90007 31.2591 9.90007C31.2591 9.90007 32.9334 8.97642 33.0369 8.40008C33.0783 8.16955 32.5267 8.06216 32.5267 8.06216M25.0369 24.9233C25.0369 24.9233 25.8637 26.1001 26.7526 30.0001C27.2016 31.5001 27.4484 32.1001 27.7036 34.2001C27.8877 35.7159 27.9574 36.0487 27.8287 36.3001M25.0369 24.9233C25.0369 24.9233 24.7406 23.1464 24.7406 22.2001C24.7406 21.38 25.0369 20.4001 25.0369 20.4001C25.6295 19.8001 26.8766 19.0051 27.9999 19.2001C28.8223 19.3428 29.2975 19.9001 29.7776 20.4001C30.2577 20.9001 30.7113 25.2171 30.9628 27.0001C31.1796 28.5365 31.5188 30.4461 31.8516 32.1001M25.0369 24.9233C25.0369 24.9233 26.6419 29.3574 27.3661 32.1001C27.9999 34.5001 28.4144 36.1395 29.3207 36.6233C30.9628 37.5001 31.8517 36.6233 31.8517 36.6233C31.8517 36.6233 32.6665 35.7001 32.148 33.6001C31.989 32.956 31.9737 32.7067 31.8516 32.1001M25.0369 24.9233C25.0369 24.9233 23.1272 25.1925 22.0741 26.1001C21.708 26.4156 21.6385 27.3595 21.6831 28.2001M24.4443 35.1001C23.2591 33.2768 22.8027 32.1001 22.8027 32.1001C22.0741 30.6233 21.9256 30.0001 21.7776 29.1001C21.7359 28.8459 21.7006 28.531 21.6831 28.2001M24.4443 35.1001C25.3332 36.0233 25.292 37.2001 27.3661 36.9001C27.6034 36.5718 27.7516 36.4505 27.8287 36.3001M24.4443 35.1001H23.5554L22.3702 35.7001M33.9258 13.5233C32.0135 10.9908 32.7072 11.4001 31.8517 11.4001C30.9628 11.4001 30.0739 12.0001 29.7776 12.3233C29.7776 12.3233 29.185 14.1285 29.185 15.3001C29.185 17.3769 29.4813 18.6001 30.3702 20.4001C31.2591 22.2001 32.572 23.7465 33.0369 24.9233C33.1106 25.1098 33.1868 25.3126 33.2645 25.5278M33.9258 13.5233C34.0003 13.622 38.5887 20.2988 38.6665 20.4001L41.9258 26.1001C42.3525 26.9642 42.7546 27.7058 43.111 28.3238M33.9258 13.5233C34.4958 13.4233 36.3554 12.6601 36.5924 11.7001M31.8517 38.7233C31.8517 38.7233 32.4443 36.6001 33.0369 35.7001C34.0398 34.1769 34.8147 32.1001 34.8147 32.1001C34.8147 32.1001 35.0614 32.1306 34.8147 30.9001M44.5924 30.6233C44.5924 30.6233 43.9917 29.8512 43.111 28.3238M36.164 16.5001C36.164 16.5001 37.4813 17.1001 38.9628 17.1001M42.8147 15.3001C42.8147 15.3001 42.5184 16.2001 41.0369 16.8001C39.5554 17.4001 39.7787 17.1624 38.9628 17.1001M38.9628 17.1001C38.9628 20.1001 41.3332 23.4001 41.3332 23.4001C41.9258 24.0001 42.055 24.3156 42.8147 24.6233C44.2962 25.2233 46.0739 25.8001 47.8517 25.2001M29.3207 14.1001C29.3207 14.1001 28.5587 15.7976 27.3661 16.2001C26.4772 16.5001 24.543 16.5001 23.5554 15.9001C22.5678 15.3001 22.0739 14.7001 22.3702 13.2001C22.3702 13.2001 23.6537 11.406 24.148 10.8001C24.8432 9.94796 25.6295 9.90007 25.6295 9.90007C26.2221 9.90007 26.9916 9.90007 26.9916 9.90007M25.9258 36.6233L25.6295 35.7001L25.3331 34.2001L26.7526 33.9001L27.3661 34.8001L27.8287 36.3001M31.8516 32.1001C31.8516 32.1001 32.515 32.1447 33.0369 31.8001C33.5588 31.4554 34.8147 30.9001 34.8147 30.9001M34.8147 30.9001C34.5543 29.6013 33.8661 27.1944 33.2645 25.5278M43.111 28.3238C43.585 28.2248 44.2961 27.9001 44.8887 27.9001C45.4813 27.9001 46.0739 27.9001 46.0739 27.9001M33.2645 25.5278L32.148 26.1001H31.2591M22.8027 12.6001C22.8027 12.6001 23.5554 11.7001 24.148 11.4001C24.6655 11.1381 25.0369 11.1001 25.9258 11.1001C26.8147 11.1001 26.6136 11.4454 26.8147 11.7001C27.107 12.0701 26.8147 12.6001 26.8147 12.6001C26.8147 12.6001 25.8088 12.3461 25.0369 12.3233C24.265 12.3005 22.8027 12.6001 22.8027 12.6001ZM29.4813 36.3001L28.8887 34.2001C29.0863 33.9001 29.4953 33.6001 30.0739 33.6001C31.259 33.6001 31.2591 33.6001 31.2591 33.6001C31.2591 33.6001 31.9155 35.4001 31.8516 35.7001C31.7078 36.3755 31.6012 36.3791 30.9628 36.6233C30.4092 36.8351 29.4813 36.3001 29.4813 36.3001ZM32.4442 12.0001C32.4442 12.0001 30.9628 11.4619 30.3702 12.3001C29.7776 13.1382 29.7776 14.4601 29.7776 14.7001C29.7776 14.9401 31.259 16.8001 31.5553 17.1001C31.8516 17.4001 31.7202 17.456 32.5267 16.8001C33.2645 16.2001 33.6295 16.1001 33.9258 15.9001L34.5183 15.6001L32.4442 12.0001Z" stroke="#3A3A3A"/>
</svg>
