<svg width="72" height="72" viewBox="0 0 72 72" fill="none" xmlns="http://www.w3.org/2000/svg">
<path d="M35.9527 13.158C35.9527 13.158 35.9527 9.62292 34.3112 9.89485C32.6697 10.1668 32.6697 12.3422 32.6697 14.7896C32.6697 14.7896 32.1225 17.5089 32.1225 21.044C31.5753 25.3948 31.8489 27.5703 31.8489 30.8334M23.6414 40.8948C23.6414 40.8948 23.1749 37.2558 23.6414 35.7282C24.1079 34.2005 24.1656 34.1599 24.7357 33.2808C25.1878 32.5836 25.6963 32.053 26.1036 31.6492C26.44 31.3158 26.7379 31.2388 27.198 31.1214C28.03 30.9092 29.3825 31.3773 29.3825 31.3773M23.6414 40.8948C23.6414 40.8948 24.0471 42.7105 24.1886 46.3334M23.6414 40.8948L24.1886 46.3334M47.1697 41.4387L45.8018 38.9913C45.8018 38.9913 44.3546 38.5158 42.7924 37.8959M41.9716 47.6931L40.8772 46.0615L39.2357 43.886C39.2357 43.886 37.6694 41.9864 36.2263 41.1667C34.3112 40.079 33.2169 39.2632 32.1225 38.1755C31.0282 37.0878 29.6227 35.3068 29.3867 34.3685C29.1131 33.2808 28.8395 31.6492 29.9338 30.5615C30.2215 30.2755 30.9799 30.591 31.8436 31.1214M40.7829 25.3948C40.43 22.8643 40.0565 21.9671 40.0565 19.4124C40.0565 15.0615 39.5093 11.5264 39.5093 11.5264C39.5093 11.5264 39.3661 11.0187 39.5093 10.4387M40.7829 25.3948C40.8197 25.9258 40.8772 26.7545 40.8772 26.7545C40.8772 26.7545 41.3035 31.6029 41.1508 31.3773C40.7829 30.8334 40.7829 29.2018 40.7829 29.2018C40.7829 29.2018 40.6036 27.2983 40.7829 25.3948ZM39.5093 10.4387C39.6816 9.74128 40.2294 8.9395 41.4244 8.79104C43.6131 8.51911 43.8867 14.7896 43.8867 14.7896C43.8867 14.7896 44.6516 17.9466 45.2546 21.8597C45.8575 25.7728 47.2638 28.9138 47.7169 31.3773C48.264 34.3524 47.7169 38.7194 47.9904 42.5264C48.264 46.3334 48.5376 50.4124 47.1697 55.851C46.6995 57.253 47.1697 58.5541 45.8018 61.5454C44.7829 63.7734 45.2546 64.5366 45.2546 64.5366H29.9338C29.9338 64.5366 29.3867 62.3773 28.2923 60.7457C27.198 59.1141 27.4716 59.6582 26.1036 57.2106C24.7357 54.763 24.1886 50.9562 24.1886 46.3334M39.5093 10.4387C39.3892 9.71356 39.3862 8.95449 38.6886 8.26327C37.9909 7.57205 36.4999 8.26325 36.4999 8.26325C36.4999 8.26325 36.1405 8.79104 35.9527 9.35099C35.6791 10.1668 35.9527 12.0703 35.9527 12.0703L36.4999 19.4124C36.4999 19.4124 36.4999 21.3159 36.2263 22.9475C36.1977 23.1179 35.9472 24.6624 35.9527 24.851M36.2263 31.1214V28.386C36.2263 28.386 36.0011 26.5199 35.9527 24.851M36.0753 15.6054C36.1036 16.4212 36.2263 16.6931 36.2263 20.2282C36.2263 23.7632 35.9527 24.851 35.9527 24.851M25.2829 34.6404L26.1036 36.0001L27.4716 37.6317V36.5439L27.7855 37.8959M31.8489 37.8959C31.8489 37.8959 32.9433 41.9825 32.9433 43.3422C32.9433 44.0138 32.2511 44.4342 31.5754 44.4299C30.7617 44.4248 30.2674 44.1526 29.6603 43.6141C28.8752 42.9177 28.5659 40.8948 28.5659 40.8948L27.7855 37.8959M25.2829 37.8959C25.7207 38.1196 26.3773 38.1755 26.6508 38.1755C26.9244 38.1755 27.7855 37.8959 27.7855 37.8959M42.7924 37.8959C41.8002 37.5022 40.5038 36.8926 40.3301 36.8159C37.8678 35.7282 37.047 34.9124 35.4055 33.8246C35.4055 33.8246 33.4438 32.1042 31.8436 31.1214M42.7924 37.8959C42.7924 37.8959 43.7715 37.0039 44.1603 36.5439C44.6558 35.9576 45.8018 34.9124 45.8018 34.9124M38.7569 43.3422C38.7569 43.5597 37.731 44.7018 37.3207 46.3334C36.9103 47.965 36.4999 50.6843 36.4999 50.6843M30.2555 30.4537C29.6127 31.1066 29.4261 33.0632 29.9338 33.8246C30.4416 34.5861 30.7546 34.9124 30.7546 34.9124C30.7546 34.9124 31.4995 35.7281 32.1225 35.7282C32.7455 35.7282 33.0144 35.3118 33.4905 34.9124C33.9665 34.5129 34.3112 33.5527 34.3112 33.5527L31.8436 31.1214M30.5291 43.0703C30.5291 43.0703 31.2375 42.7983 31.5754 42.7983C31.9132 42.7983 32.3961 42.7983 32.3961 42.7983L31.849 40.079C31.849 40.079 31.0145 39.6048 30.5291 39.8071C30.2379 39.9285 29.9339 40.351 29.9339 40.351L30.5291 43.0703Z" stroke="#3A3A3A"/>
</svg>
