<svg width="72" height="72" viewBox="0 0 72 72" fill="none" xmlns="http://www.w3.org/2000/svg">
<path d="M27.0456 30.7909C27.0456 30.7909 21.7956 16.7909 21.5456 15.5409C21.2956 14.2909 20.5456 10.0409 22.7956 9.5409C25.0456 9.0409 26.5456 13.2909 26.5456 13.2909C26.5456 13.2909 32.7956 29.7909 33.7956 29.7909M27.0456 30.7909C27.0456 30.7909 24.2956 30.5409 25.0456 33.5409C25.7956 36.5409 27.2956 38.5409 27.5456 39.5409C27.5977 39.7494 27.6389 40.0122 27.6535 40.2909M27.0456 30.7909C27.0456 30.7909 28.0456 32.5409 28.2956 35.5409C28.5456 38.5409 27.6535 40.2909 27.6535 40.2909M33.7956 29.7909C34.7956 29.2909 35.7956 29.2909 37.0456 29.2909C38.2956 29.2909 39.7956 30.7909 39.7956 30.7909M33.7956 29.7909L34.5456 31.5409M27.6535 40.2909C27.7086 41.3487 27.3786 42.6345 25.7956 42.0409C23.7956 41.2909 21.2956 38.7909 19.5456 38.5409C17.7956 38.2909 14.0456 38.7909 13.5456 41.2909C13.4903 41.5674 13.5456 40.8318 13.5456 42.0409M39.7956 30.7909C39.7956 30.7909 40.5456 29.2909 42.0456 29.2909C43.5456 29.2909 43.7956 29.7909 44.7956 30.7909C45.7956 31.7909 46.5456 31.2909 48.2956 32.2909C50.0456 33.2909 49.7956 34.2909 50.2956 35.5409C50.7956 36.7909 54.0456 42.7909 55.0456 45.2909C56.0456 47.7909 55.5456 49.7909 55.7956 51.5409C56.0456 53.2909 57.2956 56.2909 57.2956 56.2909L45.2956 64.291C45.2956 64.291 43.7956 61.541 42.0456 60.541C40.2956 59.541 39.2956 59.791 37.7956 59.541C36.2956 59.291 27.5456 53.7909 26.5456 52.2909C25.5456 50.7909 23.2956 47.7909 23.2956 47.7909C23.2956 47.7909 20.678 45.3603 19 44.5414M39.7956 30.7909L40.7956 33.0409M30.5456 9.5409C32.3789 14.1243 32.3456 23.2409 17.5456 23.0409M21.2763 11.75C21.2763 11.75 21.5455 13.541 22.591 15.3319C22.9431 15.935 24.2955 15.041 24.2955 15.041C24.2955 15.041 25.5455 14.291 25.591 14.041C25.6366 13.791 25.591 13.0819 25.591 13.0819L24.2955 9.83754M13.5456 42.0409C13.5456 42.0409 13.5456 42.25 14.75 42.75C14.9528 42.7838 18.7377 44.4133 19 44.5414M13.5456 42.0409C13.5456 42.0409 13.75 41.25 14.5 40.75C14.75 40.5834 15.0118 40.2909 15.5 40.2909C16.1036 40.2909 16.9617 40.5971 17.5456 40.75C18.5 41 19.25 41.4591 20 41.75C20.4703 41.9324 20.0492 42.7682 19.75 43.5C19.5456 44 19 44.5414 19 44.5414" stroke="#3A3A3A"/>
<path d="M14.2417 22.7823L17.7737 21.1353L17.434 25.0176L14.2417 22.7823Z" fill="#3A3A3A"/>
</svg>
