<svg width="72" height="72" viewBox="0 0 72 72" fill="none" xmlns="http://www.w3.org/2000/svg">
<path d="M29.1091 33.8906C29.1091 33.8906 24.2091 20.7656 23.9758 19.5938C23.7424 18.4219 23.0424 14.4375 25.1424 13.9688C27.2424 13.5 28.6424 17.4844 28.6424 17.4844C28.6424 17.4844 34.4758 32.9531 35.4091 32.9531M29.1091 33.8906C29.1091 33.8906 26.5424 33.6563 27.2424 36.4688C27.9424 39.2813 29.3424 41.1563 29.5758 42.0938C29.6244 42.2892 29.6629 42.5357 29.6765 42.7969M29.1091 33.8906C29.1091 33.8906 30.0424 35.5313 30.2758 38.3438C30.5091 41.1563 29.6765 42.7969 29.6765 42.7969M35.4091 32.9531C36.3425 32.4844 37.2758 32.4844 38.4425 32.4844C39.6091 32.4844 41.0091 33.8906 41.0091 33.8906M35.4091 32.9531L36.1091 34.5938M29.6765 42.7969C29.728 43.7886 29.4199 44.9941 27.9424 44.4375C26.0758 43.7344 23.7424 41.3906 22.1091 41.1563C20.4758 40.9219 16.9758 41.3906 16.5091 43.7344C16.4256 44.155 16.7213 44.5183 17.6332 44.9063C18.7997 45.4026 19.9665 45.8438 21.3666 46.5469C22.7666 46.7813 25.6091 49.8281 25.6091 49.8281C25.6091 49.8281 27.7091 52.6406 28.6424 54.0469C29.5758 55.4531 37.7425 60.6094 39.1425 60.8438C40.5425 61.0781 41.4758 60.8438 43.1091 61.7813C44.7425 62.7188 46.1425 65.2969 46.1425 65.2969L57.3425 57.7969C57.3425 57.7969 56.1758 54.9844 55.9425 53.3438C55.7091 51.7031 56.1758 49.8281 55.2425 47.4844C54.3091 45.1406 51.2758 39.5156 50.8091 38.3438C50.3425 37.1719 50.5758 36.2344 48.9425 35.2969C47.3091 34.3594 46.6091 34.8281 45.6758 33.8906C44.7425 32.9531 44.5091 32.4844 43.1091 32.4844C41.7091 32.4844 41.0091 33.8906 41.0091 33.8906M41.0091 33.8906L41.9425 36M36.5758 9.28126C36.5758 9.28126 28.4201 7.15977 23.9758 9.28126C18.3333 11.9747 16.5091 17.4844 16.5091 17.4844" stroke="#3A3A3A"/>
<path d="M36.7515 7.40625L39.0209 10.2615L35.4245 10.808L36.7515 7.40625Z" fill="#3A3A3A"/>
<path d="M23.7002 15.6094C23.7002 15.6094 24.3413 17.9095 25.3172 19.5885C25.6458 20.1538 26.908 19.3157 26.908 19.3157C26.908 19.3157 28.0747 18.6126 28.1172 18.3782C28.1597 18.1439 28.1172 17.4844 28.1172 17.4844L26.7335 14.4375" stroke="#3A3A3A"/>
<path d="M16.4668 43.5007C16.6915 43.3303 17.8947 42.7969 18.3335 42.7969C18.876 42.7969 19.9437 43.255 20.4335 43.5007C21.3668 43.9688 21.8772 44.5232 21.8772 44.5232C22.3017 44.7058 21.9215 45.5643 21.6525 46.3125" stroke="#3A3A3A"/>
</svg>
