<svg width="72" height="72" viewBox="0 0 72 72" fill="none" xmlns="http://www.w3.org/2000/svg">
<path d="M37.1714 27.9794C35.4153 25.9227 35.708 26.2165 35.1226 25.0413C33.6589 22.1028 34.2444 22.1031 31.3175 20.6341C28.3907 19.165 26.6346 16.5207 24.8784 16.2269C23.1222 15.933 21.6589 15.3454 20.4881 14.7578C19.3173 14.1701 16.3906 10.6444 17.854 9.76294C17.9511 9.76294 18.0489 9.76492 18.147 9.76869M37.1714 27.9794C37.1714 30.0361 34.8302 33.0754 34.2446 33.8557C33.6589 34.6361 34.6495 36.2062 34.6495 36.2062M37.1714 27.9794L38.9275 30.9176M39.5126 36.2062C39.5126 36.2062 39.0683 36.9912 38.3421 38.0015M35.7327 26.2165H28.3907C28.3907 26.2165 26.9273 27.0833 26.9273 27.9794C26.9273 29.4485 27.2201 33.2681 28.0982 38.2629C28.2285 39.004 30.1224 39.4831 31.9031 40.0258C33.6838 40.5685 35.4175 41.1062 35.4175 41.1062M44.1956 26.2165C45.3962 27.7355 46.9927 28.7307 47.7078 29.4485C49.7566 30.6238 49.7566 34.4434 52.098 39.732C52.3057 40.2012 52.5296 40.6935 52.765 41.2011M44.1956 26.2165C41.9559 23.3831 39.8802 19.6363 38.9275 18.8712C37.4641 17.6959 36.293 16.5207 33.6589 14.1702C31.4899 13.7347 26.2668 12.0083 23.7076 11.1435M44.1956 26.2165C44.1956 26.2165 48.2345 26.2165 48.5857 27.098C50.3419 31.5052 52.765 41.2011 52.765 41.2011M52.765 41.2011C55.1838 46.4156 58.8297 53.2475 58.8297 53.2475C58.8297 53.2475 56.7809 56.7733 54.4394 59.1238C52.098 61.4743 48.5857 64.4124 48.5857 64.4124C48.5857 64.4124 46.5373 62.3557 45.3665 61.4743C44.1958 60.5928 42.4397 58.2423 41.269 57.9485C40.0982 57.6547 35.1223 53.8351 33.6589 52.6599C32.1955 51.4846 30.4394 49.4279 26.0491 48.5465C22.4833 47.1697 22.2593 45.7929 19.3543 45.1417M37.4641 39.1444C36.0926 40.8084 34.2012 42.5312 32.1955 42.3763C28.3907 42.0825 28.2746 41.8923 25.4639 41.2011C22.6531 40.5099 20.1958 39.4382 17.8543 39.1444C16.0981 39.4382 12.2932 41.2011 13.4639 42.964C14.9271 44.1392 16.6833 44.433 18.7321 45.0207C18.9527 45.0576 19.1596 45.098 19.3543 45.1417M37.4641 39.1444C37.4641 39.1444 37.0711 38.2714 36.586 37.6753C36.123 37.1063 35.5896 36.8176 35.1226 36.5001C34.2249 35.8896 33.0738 35.4697 33.0738 35.4697M37.4641 39.1444C37.7877 38.7517 38.0829 38.3622 38.3421 38.0015M33.0738 35.4697C33.0738 35.4697 33.1015 34.4401 33.0738 33.8557C33.0514 33.3832 32.7811 32.6805 32.7811 32.6805M33.0738 35.4697C33.0738 35.4697 32.1462 36.1958 31.6104 36.5001C30.9735 36.8618 30.147 37.3815 30.147 37.3815M32.7811 32.6805C32.7811 32.6805 33.6713 33.0801 34.2446 32.9743C34.7651 32.8782 35.4175 32.2928 35.4175 32.2928M32.7811 32.6805C32.7811 32.6805 31.5953 32.1026 31.025 31.5052C30.3874 30.8373 29.8543 29.4485 29.8543 29.4485M27.5128 26.8998C27.5128 26.8998 25.4639 27.3104 25.4639 27.9794C25.4639 30.3299 26.0491 34.4434 26.9273 37.3815C27.1475 38.1183 28.3907 38.6936 28.3907 38.6936M38.3421 38.0015C38.3421 38.0015 38.1496 36.2587 37.4641 35.4697C37.171 35.1324 36.586 34.7372 36.586 34.7372M13.4641 42.6702C13.4641 42.6702 15.2202 41.2011 15.5128 41.2011C16.6874 41.2011 15.5128 40.9075 18.147 41.7887C18.6319 41.9509 20.1958 42.3763 20.1958 42.6702C20.1958 43.5516 19.3543 45.1417 19.3543 45.1417M18.147 9.76869C20.1196 9.84452 22.2444 10.6444 22.2444 10.6444C22.2444 10.6444 22.8134 10.8413 23.7076 11.1435M18.147 9.76869L18.7321 10.6444C18.7321 10.6444 19.0834 11.0366 19.3543 11.232C20.1084 11.7759 21.6588 11.8196 21.6588 11.8196C21.6588 11.8196 22.2011 11.8895 22.5368 11.8196C23.0533 11.7121 23.7076 11.1435 23.7076 11.1435" stroke="#3A3A3A"/>
</svg>
