<svg width="72" height="72" viewBox="0 0 72 72" fill="none" xmlns="http://www.w3.org/2000/svg">
<path d="M37.0572 36.3258C37.0572 36.3258 35.4852 36.6332 33.6625 35.7109C31.8398 34.7886 31.893 34.7886 30.9449 33.8858M37.0572 36.3258C37.0572 36.3258 34.8742 42.4644 33.1081 44.319C31.5892 44.9339 30.4319 44.1861 28.8552 44.319C27.2785 44.452 27.9438 44.7011 26.9958 44.9339M37.0572 36.3258L38.2723 33.9915M30.9449 33.8858L33.1081 32.1274M30.9449 33.8858C30.7444 33.9238 31.126 33.8579 30.9449 33.8858ZM30.9449 33.8858C29.7541 34.0697 28.3461 34.1357 26.9958 33.8858C26.723 33.8858 25.8931 33.7146 25.2099 33.4539M30.9449 33.8858C30.9449 33.8858 31.49 35.5809 32.1967 36.3258C32.7801 36.9406 33.1081 37.0463 33.1081 37.0463C33.1081 37.0463 33.239 38.2996 33.6625 38.8909C34.3232 39.8132 35.2465 40.7355 35.2465 40.7355M21.2608 29.053C21.2608 29.053 23.2247 32.448 24.2618 33.0497M26.9958 44.9339C26.3883 45.2414 23.9013 43.9518 23.691 43.8099M26.9958 44.9339C28.2476 44.6265 28.4299 43.8099 28.2476 42.8876C28.0046 41.6578 27.6401 40.7355 26.1212 39.1984C24.6022 37.6612 24.2618 37.3537 24.2618 37.3537M26.9958 44.9339C25.8174 44.7473 26.3883 45.347 23.691 43.8099M22.1354 25.2777C22.1354 25.2777 26.6225 24.7975 33.6625 24.7975C40.7025 24.7975 38.5761 24.7975 40.362 25.2777C41.5018 25.5841 42.5252 27.2084 42.5252 27.2084M23.691 43.8099C23.1833 43.4674 21.5646 41.8652 19.5788 40.7355C18.0448 40.2019 15.8399 39.5104 14.8814 39.8132C13.9703 40.1011 12.8221 41.1876 13.0588 41.9653C13.343 42.8995 16.0131 44.676 17.0079 45.347C18.7936 47.1916 18.816 48.0989 19.1346 48.4214C19.7421 49.0363 25.5138 51.1883 27.6401 52.418C29.7665 53.6478 29.7665 54.2626 32.8043 55.4924C35.842 56.7221 39.7911 56.7417 41.9176 57.0491C44.044 57.3565 46.4375 59.5086 48.564 59.816C50.6904 60.1234 53.7282 62.8904 53.7282 62.8904C53.7282 62.8904 56.7659 60.1234 59.1961 57.0491C61.6264 53.9748 62.8415 50.2855 62.8415 50.2855C62.8415 50.2855 59.8405 49.0363 57.1065 45.0396C54.3725 41.043 52.2716 38.6943 49.2083 34.2794C44.9554 28.1503 43.7403 23.2118 41.6139 23.2118C38.2723 23.2118 31.1955 24.3079 26.3883 24.9032C26.3883 24.9032 22.476 25.3834 20.0457 25.3834C19.3246 25.5818 17.8825 26.2246 17.8825 27.2084C17.8825 28.1922 18.1493 33.3767 18.7937 37.3537C19.3369 40.7071 20.0457 41.0134 23.691 43.8099ZM24.2618 37.3537C24.2618 37.3537 24.5848 35.9418 24.6024 35.2017C24.6226 34.3508 24.2618 33.0497 24.2618 33.0497M24.2618 37.3537L21.5646 37.9686M24.2618 33.0497C24.3938 33.1262 24.7717 33.2868 25.2099 33.4539M22.8859 43.195C22.8859 43.195 24.3296 43.556 25.2099 43.8099C25.8242 43.9871 26.4899 43.9964 26.7287 44.1173C27.3363 44.4247 27.3363 44.9339 27.3363 44.9339M31.2854 44.6402C31.2854 44.6402 31.919 43.8099 31.5892 42.5801C30.9449 40.1782 30.0703 40.1207 27.6401 39.5058L24.6024 37.6805C24.6024 37.6805 25.1964 37.5589 25.5136 37.0463C25.8348 36.5275 25.8797 35.8106 25.8174 35.2017C25.7389 34.4341 25.2099 33.4539 25.2099 33.4539M27.6401 24.744C27.4131 24.3341 26.845 22.7199 26.3883 21.982C25.9316 21.2442 25.4124 19.0102 25.2099 17.9854C25.2099 17.9854 23.691 15.5259 23.3872 13.3739C23.2136 12.1441 22.4759 11.8367 22.1354 10.9144C21.7949 9.99208 21.6768 8.98838 22.1354 8.14748C22.5079 7.46447 23.3872 6.42696 23.691 6.91774M23.691 6.91774L23.3872 8.14748C23.3872 8.14748 23.8144 8.99632 24.2618 9.37721C24.681 9.73399 25.5136 10.0171 25.5136 10.0171M23.691 6.91774C24.0184 7.4467 24.8575 8.88582 25.5136 10.0171M33.6625 23.9468L30.0703 18.2928L26.3883 11.5293C26.3883 11.5293 26.0015 10.8583 25.5136 10.0171M15.489 39.7394C15.489 39.7394 16.8496 40.5579 17.6154 41.0429C18.1085 41.3553 18.7937 41.9653 18.7937 41.9653C18.7937 41.9653 18.9046 42.7281 18.7937 43.195C18.639 43.8459 18.2232 44.0663 17.8825 44.6402C17.6487 45.034 17.3022 45.6597 17.3022 45.6597" stroke="#3A3A3A"/>
</svg>
