<svg width="72" height="72" viewBox="0 0 72 72" fill="none" xmlns="http://www.w3.org/2000/svg">
<path d="M41.1601 26.9773C41.1601 26.9773 47.693 30.6591 48.5 31.2727C48.7853 31.4896 51.7088 37.8693 54.4578 44.0312C57.2289 51.0625 60 56.6364 60 56.6364C60 56.6364 57.1267 60.2982 54.4578 61.8276C52.0457 63.2099 46.9683 64 46.9683 64C46.9683 64 43.9093 62.3352 39.2169 59.7812C34.7831 58.0937 31.7035 55.8295 29.953 54.5909C28.6867 53.6949 27.3158 48.6591 27.3158 48.6591L23.7666 43.1364L21.8985 38.0227M46.9683 32.2955L39.875 25.75L32.2403 18.1818L20.3367 13.0682M20.3367 13.0682L15.2929 10M20.3367 13.0682C20.3367 13.0682 19.9195 13.8577 19.4474 14.0909C18.9097 14.3566 18.5089 14.1689 17.9157 14.0909C16.8274 13.9478 15.2929 13.0682 15.2929 13.0682C15.2929 13.0682 15.0637 12.4566 15.0088 12.0455C14.902 11.2461 15.2929 10 15.2929 10M15.2929 10C14.8894 10.4091 14.3147 11.0096 14.0824 11.8409C13.5827 13.6285 15.4946 15.5227 16.0999 16.1364C16.5841 16.6273 19.6642 18.5227 21.1438 19.4091L31.635 25.75L41.7227 32.7045L45.7578 36.5909M16.7052 16.606C16.7052 16.606 16.5707 18.25 16.7052 19C16.8397 19.75 16.5905 20.2273 17.9157 22.2727C18.8032 23.6427 19.1455 23.7466 19.6491 24.087C20.2544 24.496 21.6835 25.4091 22.625 25.75C23.163 26.8409 26.9946 30.7818 27.8017 31.2727C28.3729 31.6202 29.0649 31.4906 30.3574 32.3423M29.7275 32.3423L29.2139 34.3409C29.2139 34.3409 30.021 36.1818 30.3574 38.6364C30.524 39.852 29.953 39.8843 29.953 39.8843M25.1788 28.8103C25.1788 28.8103 24.9771 30.027 24.9771 30.8636C24.9771 31.7003 24.9771 32.7045 24.9771 32.7045M24.9771 32.7045H24.7753C24.7753 32.7045 23.3816 32.4048 22.2719 32.2955M24.9771 32.7045C24.9771 32.7045 27.2021 35.6017 27.8017 36.5909C28.6697 38.0231 30.3574 40.4773 30.3574 40.4773L31.635 43.1364L32.6438 44.7727C32.6438 44.7727 33.8543 42.9318 33.8543 42.5227C33.8543 41.3597 33.8543 42.3182 33.8543 41.0909C33.8543 39.7687 34.0927 38.9499 33.8543 37.6136C33.6147 36.2704 32.6438 34.3409 32.6438 34.3409C32.349 34.0222 30.8909 32.6938 30.3574 32.3423M29.953 36.5909C29.953 36.5909 29.6757 34.7122 29.953 34.3409C30.2025 34.007 30.3574 32.3423 30.3574 32.3423M22.2719 32.2955C21.7735 32.2464 21.4935 32.1891 21.1438 32.2955C20.0156 32.6386 19.3667 33.1545 19.0439 33.3182L19.6491 34.3409L21.8985 38.0227M22.2719 32.2955C22.2719 32.2955 23.2807 33.7273 23.6842 34.5455C24.0877 35.3636 24.2895 35.9773 24.2895 35.9773C24.2895 35.9773 24.1732 36.4879 24.0877 36.7955C24.0022 37.103 23.0789 37.6136 23.0789 37.6136L21.8985 38.0227" stroke="#3A3A3A" stroke-linecap="round"/>
</svg>
