<svg width="217" height="52" viewBox="0 0 217 52" fill="none" xmlns="http://www.w3.org/2000/svg">
<rect width="27.7225" height="40.4444" transform="matrix(-1 0 0 1 204.673 11.5556)" fill="#FF6F91"/>
<path d="M204.573 11.5556 H 217 L 204.573 30.8148 V 11.5556 Z" fill="#FF6F91"/>
<path d="M204.573 52 H 217 L 204.573 30.8148 V 52 Z" fill="#FF6F91"/>
<rect x="12.3272" y="11.5556" width="27.7225" height="40.4444" fill="#FF6F91"/>
<path d="M12.4273 11.5556H0L12.4273 30.8148V11.5556Z" fill="#FF6F91"/>
<path d="M12.4273 52H0L12.4273 30.8148V52Z" fill="#FF6F91"/>
<rect x="21.9868" y="11.5556" width="18.163" height="40.4444" fill="#F15A7E"/>
<rect x="176.85" y="11.5556" width="18.163" height="40.4444" fill="#F15A7E"/>
<rect x="26.7666" width="163.467" height="40.4444" fill="#FF6F91"/>
<path d="M40.1499 40.4444H26.7666L40.1499 52V40.4444Z" fill="#D7375D"/>
<path d="M176.85 40.4444L176.85 52L190.233 40.4444L176.85 40.4444Z" fill="#D7375D"/>
</svg>
